AC-Jade.ufo
<glyph name="exclam" format="2">
	<advance width="261"/>
	<unicode hex="0021"/>
	<outline>
		<contour>
			<point x="93" y="209" type="line"/>
			<point x="164" y="209" type="line"/>
			<point x="186" y="730" type="line"/>
			<point x="181" y="740" type="line"/>
			<point x="77" y="740" type="line"/>
			<point x="72" y="730" type="line"/>
		</contour>
		<contour>
			<point x="188" y="56" type="curve" smooth="yes"/>
			<point x="188" y="27"/>
			<point x="151" y="-6"/>
			<point x="127" y="-6" type="curve" smooth="yes"/>
			<point x="103" y="-6"/>
			<point x="66" y="27"/>
			<point x="66" y="56" type="curve" smooth="yes"/>
			<point x="66" y="85"/>
			<point x="103" y="118"/>
			<point x="127" y="118" type="curve" smooth="yes"/>
			<point x="151" y="118"/>
			<point x="188" y="85"/>
		</contour>
	</outline>
</glyph>
<glyph name="quotedbl" format="2">
	<advance width="369"/>
	<unicode hex="0022"/>
	<outline>
		<contour>
			<point x="71" y="449" type="line"/>
			<point x="81" y="442" type="line"/>
			<point x="128" y="442" type="line"/>
			<point x="137" y="449" type="line"/>
			<point x="159" y="750" type="line"/>
			<point x="154" y="760" type="line"/>
			<point x="55" y="760" type="line"/>
			<point x="50" y="750" type="line"/>
		</contour>
		<contour>
			<point x="231" y="449" type="line"/>
			<point x="241" y="442" type="line"/>
			<point x="288" y="442" type="line"/>
			<point x="297" y="449" type="line"/>
			<point x="319" y="750" type="line"/>
			<point x="314" y="760" type="line"/>
			<point x="215" y="760" type="line"/>
			<point x="210" y="750" type="line"/>
		</contour>
	</outline>
</glyph>
<glyph name="numbersign" format="2">
	<advance width="588"/>
	<unicode hex="0023"/>
	<outline>
		<contour>
			<point x="84" y="-2" type="line"/>
			<point x="152" y="-2" type="line"/>
			<point x="160" y="8" type="line"/>
			<point x="316" y="692" type="line"/>
			<point x="312" y="700" type="line"/>
			<point x="245" y="700" type="line"/>
			<point x="238" y="693" type="line"/>
			<point x="82" y="8" type="line"/>
		</contour>
		<contour>
			<point x="281" y="-2" type="line"/>
			<point x="349" y="-2" type="line"/>
			<point x="358" y="8" type="line"/>
			<point x="502" y="692" type="line"/>
			<point x="499" y="700" type="line"/>
			<point x="432" y="700" type="line"/>
			<point x="424" y="693" type="line"/>
			<point x="280" y="8" type="line"/>
		</contour>
		<contour>
			<point x="265" y="220" type="curve" smooth="yes"/>
			<point x="324" y="220"/>
			<point x="451" y="215"/>
			<point x="524" y="212" type="curve"/>
			<point x="533" y="220" type="line"/>
			<point x="548" y="294" type="line"/>
			<point x="539" y="302" type="line"/>
			<point x="467" y="299"/>
			<point x="337" y="294"/>
			<point x="278" y="294" type="curve" smooth="yes"/>
			<point x="219" y="294"/>
			<point x="109" y="299"/>
			<point x="17" y="302" type="curve"/>
			<point x="8" y="294" type="line"/>
			<point x="-7" y="220" type="line"/>
			<point x="2" y="212" type="line"/>
			<point x="95" y="215"/>
			<point x="206" y="220"/>
		</contour>
		<contour>
			<point x="306" y="420" type="curve" smooth="yes"/>
			<point x="365" y="420"/>
			<point x="492" y="415"/>
			<point x="565" y="412" type="curve"/>
			<point x="574" y="420" type="line"/>
			<point x="590" y="494" type="line"/>
			<point x="581" y="502" type="line"/>
			<point x="509" y="499"/>
			<point x="379" y="494"/>
			<point x="320" y="494" type="curve" smooth="yes"/>
			<point x="261" y="494"/>
			<point x="151" y="499"/>
			<point x="59" y="502" type="curve"/>
			<point x="50" y="494" type="line"/>
			<point x="34" y="420" type="line"/>
			<point x="43" y="412" type="line"/>
			<point x="136" y="415"/>
			<point x="247" y="420"/>
		</contour>
	</outline>
</glyph>
<glyph name="dollar" format="2">
	<advance width="500"/>
	<unicode hex="0024"/>
	<anchor x="248" y="700" name="top"/>
	<anchor x="248" y="0" name="bottom"/>
	<outline>
		<contour>
			<point x="284" y="-10" type="curve"/>
			<point x="395" y="-10"/>
			<point x="483" y="70.6068"/>
			<point x="483" y="195" type="curve" smooth="yes"/>
			<point x="483" y="431"/>
			<point x="152" y="404"/>
			<point x="152" y="546" type="curve"/>
			<point x="152" y="597"/>
			<point x="187.36634" y="627"/>
			<point x="246" y="627" type="curve" smooth="yes"/>
			<point x="304" y="627"/>
			<point x="390" y="602"/>
			<point x="435" y="585" type="curve"/>
			<point x="441" y="588" type="line"/>
			<point x="465" y="674" type="line"/>
			<point x="461" y="681" type="line"/>
			<point x="387" y="703"/>
			<point x="327" y="710"/>
			<point x="266" y="710" type="curve" smooth="yes"/>
			<point x="149.01422" y="710"/>
			<point x="62" y="653"/>
			<point x="62" y="546" type="curve"/>
			<point x="62" y="336"/>
			<point x="393" y="327"/>
			<point x="393" y="186" type="curve"/>
			<point x="393" y="106.71429"/>
			<point x="346" y="75"/>
			<point x="273" y="75" type="curve" smooth="yes"/>
			<point x="217" y="75"/>
			<point x="159" y="94"/>
			<point x="74" y="120" type="curve"/>
			<point x="66" y="118" type="line"/>
			<point x="40" y="31" type="line"/>
			<point x="45" y="23" type="line"/>
			<point x="113" y="5"/>
			<point x="190" y="-10"/>
		</contour>
		<contour>
			<point x="311" y="352" type="curve"/>
			<point x="252" y="352" type="line"/>
			<point x="252" y="205"/>
			<point x="251" y="46"/>
			<point x="244" y="-97" type="curve"/>
			<point x="252" y="-106" type="line"/>
			<point x="308" y="-106" type="line"/>
			<point x="316" y="-97" type="line"/>
			<point x="309" y="43"/>
			<point x="311" y="207"/>
		</contour>
		<contour>
			<point x="253" y="399" type="curve"/>
			<point x="315" y="399" type="line"/>
			<point x="315" y="533"/>
			<point x="314" y="623"/>
			<point x="320" y="775" type="curve"/>
			<point x="312" y="784" type="line"/>
			<point x="256" y="784" type="line"/>
			<point x="248" y="775" type="line"/>
			<point x="254" y="623"/>
			<point x="253" y="530"/>
		</contour>
	</outline>
</glyph>
<glyph name="percent" format="2">
	<advance width="722"/>
	<unicode hex="0025"/>
	<outline>
		<contour>
			<point x="90" y="0" type="line"/>
			<point x="176" y="0" type="line"/>
			<point x="184" y="10" type="line"/>
			<point x="636" y="692" type="line"/>
			<point x="632" y="700" type="line"/>
			<point x="547" y="700" type="line"/>
			<point x="540" y="693" type="line"/>
			<point x="88" y="10" type="line"/>
		</contour>
		<contour>
			<point x="531" y="-11" type="curve" smooth="yes"/>
			<point x="628" y="-11"/>
			<point x="672" y="59"/>
			<point x="672" y="146" type="curve" smooth="yes"/>
			<point x="672" y="228"/>
			<point x="627" y="309"/>
			<point x="528" y="309" type="curve" smooth="yes"/>
			<point x="432" y="309"/>
			<point x="387" y="235"/>
			<point x="387" y="146" type="curve" smooth="yes"/>
			<point x="387" y="61"/>
			<point x="435" y="-11"/>
		</contour>
		<contour>
			<point x="528" y="51" type="curve" smooth="yes"/>
			<point x="479" y="51"/>
			<point x="453" y="93"/>
			<point x="452" y="146" type="curve" smooth="yes"/>
			<point x="451" y="204"/>
			<point x="478" y="246"/>
			<point x="525" y="246" type="curve" smooth="yes"/>
			<point x="581" y="246"/>
			<point x="606" y="204"/>
			<point x="606" y="146" type="curve" smooth="yes"/>
			<point x="606" y="88"/>
			<point x="581" y="51"/>
		</contour>
		<contour>
			<point x="194" y="388" type="curve" smooth="yes"/>
			<point x="291" y="388"/>
			<point x="337" y="458"/>
			<point x="335" y="545" type="curve" smooth="yes"/>
			<point x="333" y="634"/>
			<point x="290" y="708"/>
			<point x="191" y="708" type="curve" smooth="yes"/>
			<point x="95" y="708"/>
			<point x="50" y="634"/>
			<point x="50" y="545" type="curve" smooth="yes"/>
			<point x="50" y="460"/>
			<point x="98" y="388"/>
		</contour>
		<contour>
			<point x="191" y="450" type="curve" smooth="yes"/>
			<point x="142" y="450"/>
			<point x="116" y="492"/>
			<point x="115" y="545" type="curve" smooth="yes"/>
			<point x="114" y="603"/>
			<point x="141" y="645"/>
			<point x="188" y="645" type="curve" smooth="yes"/>
			<point x="244" y="645"/>
			<point x="269" y="603"/>
			<point x="269" y="545" type="curve" smooth="yes"/>
			<point x="269" y="487"/>
			<point x="244" y="450"/>
		</contour>
	</outline>
</glyph>
<glyph name="ampersand" format="2">
	<advance width="592"/>
	<unicode hex="0026"/>
	<outline>
		<contour>
			<point x="446" y="592" type="line"/>
			<point x="484" y="668" type="line"/>
			<point x="482" y="678" type="line"/>
			<point x="447" y="693"/>
			<point x="391" y="710"/>
			<point x="296" y="710" type="curve" smooth="yes"/>
			<point x="199" y="710"/>
			<point x="99" y="651"/>
			<point x="99" y="544" type="curve" smooth="yes"/>
			<point x="99" y="450"/>
			<point x="164" y="382"/>
			<point x="269" y="382" type="curve"/>
			<point x="267" y="389" type="line"/>
			<point x="134" y="388"/>
			<point x="50" y="309"/>
			<point x="50" y="184" type="curve" smooth="yes"/>
			<point x="50" y="64"/>
			<point x="146" y="-11"/>
			<point x="300" y="-11" type="curve" smooth="yes"/>
			<point x="419" y="-11"/>
			<point x="495" y="39"/>
			<point x="495" y="136" type="curve" smooth="yes"/>
			<point x="495" y="201"/>
			<point x="491" y="296"/>
			<point x="494" y="380" type="curve"/>
			<point x="402" y="380" type="line"/>
			<point x="407" y="313"/>
			<point x="407" y="245"/>
			<point x="407" y="177" type="curve" smooth="yes"/>
			<point x="407" y="137"/>
			<point x="407" y="98"/>
			<point x="405" y="58" type="curve"/>
			<point x="414" y="115" type="line"/>
			<point x="391" y="92"/>
			<point x="360" y="77"/>
			<point x="300" y="77" type="curve" smooth="yes"/>
			<point x="196" y="77"/>
			<point x="150" y="113"/>
			<point x="150" y="196" type="curve" smooth="yes"/>
			<point x="150" y="331"/>
			<point x="232" y="343"/>
			<point x="336" y="343" type="curve" smooth="yes"/>
			<point x="481" y="343"/>
			<point x="494.61197" y="340.59867"/>
			<point x="554" y="334" type="curve"/>
			<point x="562" y="338" type="line"/>
			<point x="562" y="410" type="line"/>
			<point x="554" y="414" type="line"/>
			<point x="528" y="411"/>
			<point x="493" y="410"/>
			<point x="371" y="410" type="curve" smooth="yes"/>
			<point x="282" y="410"/>
			<point x="196" y="430"/>
			<point x="196" y="547" type="curve" smooth="yes"/>
			<point x="196" y="609"/>
			<point x="237" y="636"/>
			<point x="293" y="636" type="curve" smooth="yes"/>
			<point x="357" y="636"/>
			<point x="409" y="607"/>
			<point x="436" y="592" type="curve"/>
		</contour>
	</outline>
</glyph>
<glyph name="quotesingle" format="2">
	<advance width="209"/>
	<unicode hex="0027"/>
	<outline>
		<contour>
			<point x="71" y="449" type="line"/>
			<point x="81" y="442" type="line"/>
			<point x="128" y="442" type="line"/>
			<point x="137" y="449" type="line"/>
			<point x="159" y="750" type="line"/>
			<point x="154" y="760" type="line"/>
			<point x="55" y="760" type="line"/>
			<point x="50" y="750" type="line"/>
		</contour>
	</outline>
</glyph>
<glyph name="plus" format="2">
	<advance width="620"/>
	<unicode hex="002B"/>
	<outline>
		<contour>
			<point x="312" y="320" type="curve" smooth="yes"/>
			<point x="371" y="320"/>
			<point x="458" y="315"/>
			<point x="531" y="312" type="curve"/>
			<point x="540" y="320" type="line"/>
			<point x="540" y="394" type="line"/>
			<point x="531" y="402" type="line"/>
			<point x="459" y="399"/>
			<point x="369" y="394"/>
			<point x="310" y="394" type="curve" smooth="yes"/>
			<point x="251" y="394"/>
			<point x="181" y="399"/>
			<point x="89" y="402" type="curve"/>
			<point x="80" y="394" type="line"/>
			<point x="80" y="320" type="line"/>
			<point x="89" y="312" type="line"/>
			<point x="182" y="315"/>
			<point x="253" y="320"/>
		</contour>
		<contour>
			<point x="271" y="355" type="curve" smooth="yes"/>
			<point x="271" y="298"/>
			<point x="266" y="209"/>
			<point x="263" y="136" type="curve"/>
			<point x="271" y="127" type="line"/>
			<point x="349" y="127" type="line"/>
			<point x="357" y="136" type="line"/>
			<point x="354" y="208"/>
			<point x="349" y="300"/>
			<point x="349" y="357" type="curve" smooth="yes"/>
			<point x="349" y="414"/>
			<point x="354" y="486"/>
			<point x="357" y="578" type="curve"/>
			<point x="349" y="587" type="line"/>
			<point x="271" y="587" type="line"/>
			<point x="263" y="578" type="line"/>
			<point x="266" y="485"/>
			<point x="271" y="412"/>
		</contour>
	</outline>
</glyph>
<glyph name="slash" format="2">
	<advance width="387"/>
	<unicode hex="002F"/>
	<outline>
		<contour>
			<point x="12" y="-167" type="line"/>
			<point x="87" y="-167" type="line"/>
			<point x="95" y="-157" type="line"/>
			<point x="367" y="752" type="line"/>
			<point x="363" y="760" type="line"/>
			<point x="289" y="760" type="line"/>
			<point x="282" y="753" type="line"/>
			<point x="10" y="-157" type="line"/>
		</contour>
	</outline>
</glyph>
<glyph name="one" format="2">
	<advance width="522"/>
	<unicode hex="0031"/>
	<outline>
		<contour>
			<point x="204" y="43" type="curve"/>
			<point x="237" y="72" type="line"/>
			<point x="149" y="75"/>
			<point x="84" y="78"/>
			<point x="54" y="80" type="curve"/>
			<point x="44" y="75" type="line"/>
			<point x="44" y="1" type="line"/>
			<point x="54" y="-4" type="line"/>
			<point x="121" y="2"/>
			<point x="374" y="1"/>
			<point x="432" y="-4" type="curve"/>
			<point x="442" y="1" type="line"/>
			<point x="442" y="75" type="line"/>
			<point x="432" y="80" type="line"/>
			<point x="406" y="76"/>
			<point x="372" y="74"/>
			<point x="274" y="73" type="curve"/>
			<point x="305" y="43" type="line"/>
			<point x="300" y="169"/>
			<point x="298" y="287.48266"/>
			<point x="298" y="394" type="curve" smooth="yes"/>
			<point x="298" y="551"/>
			<point x="306.33206" y="634.95795"/>
			<point x="308" y="690" type="curve"/>
			<point x="303" y="700" type="line"/>
			<point x="217" y="700" type="line"/>
			<point x="160" y="659"/>
			<point x="98.58733" y="615.92167"/>
			<point x="35" y="579" type="curve"/>
			<point x="30" y="569" type="line"/>
			<point x="60" y="513" type="line"/>
			<point x="69" y="510" type="line"/>
			<point x="100" y="533"/>
			<point x="174" y="580"/>
			<point x="236" y="615" type="curve"/>
			<point x="214" y="651" type="line"/>
			<point x="214" y="511" type="line" smooth="yes"/>
			<point x="214" y="300.75378"/>
			<point x="210" y="169"/>
		</contour>
	</outline>
</glyph>
<glyph name="two" format="2">
	<advance width="484"/>
	<unicode hex="0032"/>
	<outline>
		<contour>
			<point x="50" y="0" type="line"/>
			<point x="430" y="0" type="line"/>
			<point x="440" y="5" type="line"/>
			<point x="454" y="94" type="line"/>
			<point x="447" y="100" type="line"/>
			<point x="93" y="87" type="line"/>
			<point x="101" y="59" type="line"/>
			<point x="175" y="121"/>
			<point x="428" y="325"/>
			<point x="428" y="548" type="curve" smooth="yes"/>
			<point x="428" y="647"/>
			<point x="354" y="711"/>
			<point x="242" y="711" type="curve" smooth="yes"/>
			<point x="158" y="711"/>
			<point x="101" y="679"/>
			<point x="38" y="648" type="curve"/>
			<point x="36" y="643" type="line"/>
			<point x="58" y="588" type="line"/>
			<point x="64" y="586" type="line"/>
			<point x="124" y="605"/>
			<point x="166" y="618"/>
			<point x="220" y="618" type="curve"/>
			<point x="275" y="618"/>
			<point x="328" y="590"/>
			<point x="328" y="518" type="curve" smooth="yes"/>
			<point x="328" y="360"/>
			<point x="97" y="143"/>
			<point x="36" y="83" type="curve"/>
			<point x="30" y="72" type="line"/>
			<point x="43" y="6" type="line"/>
		</contour>
	</outline>
</glyph>
<glyph name="four" format="2">
	<advance width="522"/>
	<unicode hex="0034"/>
	<outline>
		<contour>
			<point x="499" y="191" type="curve"/>
			<point x="502" y="195" type="line"/>
			<point x="502" y="284" type="line"/>
			<point x="499" y="288" type="line"/>
			<point x="452" y="284"/>
			<point x="214" y="276"/>
			<point x="67" y="276" type="curve"/>
			<point x="99" y="241" type="line"/>
			<point x="371" y="664" type="line"/>
			<point x="370" y="676" type="line"/>
			<point x="317" y="707" type="line"/>
			<point x="304" y="703" type="line"/>
			<point x="15" y="243" type="line"/>
			<point x="16" y="232" type="line"/>
			<point x="33" y="202" type="line"/>
			<point x="43" y="196" type="line"/>
			<point x="153" y="196"/>
			<point x="458" y="191"/>
		</contour>
		<contour>
			<point x="325" y="0" type="line"/>
			<point x="419" y="0" type="line"/>
			<point x="424" y="10" type="line"/>
			<point x="422" y="44"/>
			<point x="414" y="202"/>
			<point x="414" y="294" type="curve" smooth="yes"/>
			<point x="414" y="378"/>
			<point x="416" y="455"/>
			<point x="419" y="508" type="curve"/>
			<point x="414" y="520" type="line"/>
			<point x="330" y="520" type="line"/>
			<point x="325" y="509" type="line"/>
			<point x="329" y="455"/>
			<point x="330" y="377"/>
			<point x="330" y="294" type="curve" smooth="yes"/>
			<point x="330" y="202"/>
			<point x="322" y="44"/>
			<point x="320" y="10" type="curve"/>
		</contour>
	</outline>
</glyph>
<glyph name="five" format="2">
	<advance width="498"/>
	<unicode hex="0035"/>
	<outline>
		<contour>
			<point x="215" y="-9" type="curve" smooth="yes"/>
			<point x="363" y="-9"/>
			<point x="468" y="84"/>
			<point x="468" y="216" type="curve" smooth="yes"/>
			<point x="468" y="360"/>
			<point x="378" y="415"/>
			<point x="125" y="452" type="curve"/>
			<point x="159" y="432" type="line"/>
			<point x="179" y="647" type="line"/>
			<point x="136" y="619" type="line"/>
			<point x="230" y="619"/>
			<point x="344" y="614"/>
			<point x="426" y="611" type="curve"/>
			<point x="431" y="620" type="line"/>
			<point x="431" y="691" type="line"/>
			<point x="427" y="701" type="line"/>
			<point x="378" y="698"/>
			<point x="322" y="696"/>
			<point x="267" y="696" type="curve" smooth="yes"/>
			<point x="200" y="696"/>
			<point x="156" y="698"/>
			<point x="97" y="700" type="curve"/>
			<point x="91" y="690" type="line"/>
			<point x="63" y="383" type="line"/>
			<point x="75" y="373" type="line"/>
			<point x="275" y="340"/>
			<point x="377" y="309"/>
			<point x="377" y="206" type="curve"/>
			<point x="377" y="127"/>
			<point x="340" y="73"/>
			<point x="257" y="73" type="curve" smooth="yes"/>
			<point x="200" y="73"/>
			<point x="134" y="97"/>
			<point x="58" y="127" type="curve"/>
			<point x="53" y="124" type="line"/>
			<point x="20" y="37" type="line"/>
			<point x="22" y="30" type="line"/>
			<point x="86" y="5"/>
			<point x="147" y="-9"/>
		</contour>
	</outline>
</glyph>
<glyph name="colon" format="2">
	<advance width="180"/>
	<unicode hex="003A"/>
	<outline>
		<contour>
			<point x="152" y="56" type="curve" smooth="yes"/>
			<point x="152" y="27"/>
			<point x="115" y="-6"/>
			<point x="91" y="-6" type="curve" smooth="yes"/>
			<point x="67" y="-6"/>
			<point x="30" y="27"/>
			<point x="30" y="56" type="curve" smooth="yes"/>
			<point x="30" y="85"/>
			<point x="67" y="118"/>
			<point x="91" y="118" type="curve" smooth="yes"/>
			<point x="115" y="118"/>
			<point x="152" y="85"/>
		</contour>
		<contour>
			<point x="152" y="386" type="curve" smooth="yes"/>
			<point x="152" y="357"/>
			<point x="115" y="324"/>
			<point x="91" y="324" type="curve" smooth="yes"/>
			<point x="67" y="324"/>
			<point x="30" y="357"/>
			<point x="30" y="386" type="curve" smooth="yes"/>
			<point x="30" y="415"/>
			<point x="67" y="448"/>
			<point x="91" y="448" type="curve" smooth="yes"/>
			<point x="115" y="448"/>
			<point x="152" y="415"/>
		</contour>
	</outline>
</glyph>
<glyph name="semicolon" format="2">
	<advance width="251"/>
	<unicode hex="003B"/>
	<outline>
		<contour>
			<point x="152" y="56" type="curve" smooth="yes"/>
			<point x="152" y="5"/>
			<point x="114" y="-78"/>
			<point x="71" y="-181" type="curve"/>
			<point x="64" y="-181" type="line"/>
			<point x="35" y="-168" type="line"/>
			<point x="32" y="-162" type="line"/>
			<point x="47" y="-105"/>
			<point x="52" y="-66"/>
			<point x="52" y="-38" type="curve" smooth="yes"/>
			<point x="52" y="17"/>
			<point x="32" y="29"/>
			<point x="32" y="56" type="curve" smooth="yes"/>
			<point x="32" y="78"/>
			<point x="67" y="118"/>
			<point x="91" y="118" type="curve" smooth="yes"/>
			<point x="115" y="118"/>
			<point x="152" y="78"/>
		</contour>
		<contour>
			<point x="152" y="386" type="curve" smooth="yes"/>
			<point x="152" y="357"/>
			<point x="115" y="324"/>
			<point x="91" y="324" type="curve" smooth="yes"/>
			<point x="67" y="324"/>
			<point x="30" y="357"/>
			<point x="30" y="386" type="curve" smooth="yes"/>
			<point x="30" y="415"/>
			<point x="67" y="448"/>
			<point x="91" y="448" type="curve" smooth="yes"/>
			<point x="115" y="448"/>
			<point x="152" y="415"/>
		</contour>
	</outline>
</glyph>
<glyph name="less" format="2">
	<advance width="545"/>
	<unicode hex="003C"/>
	<outline>
		<contour>
			<point x="76" y="283" type="line"/>
			<point x="223" y="343"/>
			<point x="347" y="395"/>
			<point x="485" y="454" type="curve"/>
			<point x="494" y="463" type="line"/>
			<point x="490" y="547" type="line"/>
			<point x="481" y="552" type="line"/>
			<point x="342" y="481"/>
			<point x="206" y="418"/>
			<point x="60" y="360" type="curve"/>
			<point x="50" y="348" type="line"/>
			<point x="50" y="238" type="line"/>
			<point x="60" y="226" type="line"/>
			<point x="206" y="168"/>
			<point x="343" y="105"/>
			<point x="482" y="34" type="curve"/>
			<point x="491" y="39" type="line"/>
			<point x="495" y="123" type="line"/>
			<point x="486" y="132" type="line"/>
			<point x="348" y="191"/>
			<point x="223" y="247"/>
			<point x="76" y="307" type="curve"/>
		</contour>
	</outline>
</glyph>
<glyph name="equal" format="2">
	<advance width="620"/>
	<unicode hex="003D"/>
	<outline>
		<contour>
			<point x="312" y="420" type="curve" smooth="yes"/>
			<point x="371" y="420"/>
			<point x="458" y="415"/>
			<point x="531" y="412" type="curve"/>
			<point x="540" y="420" type="line"/>
			<point x="540" y="494" type="line"/>
			<point x="531" y="502" type="line"/>
			<point x="459" y="499"/>
			<point x="369" y="494"/>
			<point x="310" y="494" type="curve" smooth="yes"/>
			<point x="251" y="494"/>
			<point x="181" y="499"/>
			<point x="89" y="502" type="curve"/>
			<point x="80" y="494" type="line"/>
			<point x="80" y="420" type="line"/>
			<point x="89" y="412" type="line"/>
			<point x="182" y="415"/>
			<point x="253" y="420"/>
		</contour>
		<contour>
			<point x="312" y="240" type="curve" smooth="yes"/>
			<point x="371" y="240"/>
			<point x="458" y="235"/>
			<point x="531" y="232" type="curve"/>
			<point x="540" y="240" type="line"/>
			<point x="540" y="314" type="line"/>
			<point x="531" y="322" type="line"/>
			<point x="459" y="319"/>
			<point x="369" y="314"/>
			<point x="310" y="314" type="curve" smooth="yes"/>
			<point x="251" y="314"/>
			<point x="181" y="319"/>
			<point x="89" y="322" type="curve"/>
			<point x="80" y="314" type="line"/>
			<point x="80" y="240" type="line"/>
			<point x="89" y="232" type="line"/>
			<point x="182" y="235"/>
			<point x="253" y="240"/>
		</contour>
	</outline>
</glyph>
<glyph name="B" format="2">
	<advance width="571"/>
	<unicode hex="0042"/>
	<outline>
		<contour>
			<point x="85" y="0" type="line"/>
			<point x="285" y="0" type="line" smooth="yes"/>
			<point x="436" y="0"/>
			<point x="526" y="63"/>
			<point x="526" y="201" type="curve" smooth="yes"/>
			<point x="526" y="325"/>
			<point x="452" y="386"/>
			<point x="315" y="386" type="curve" smooth="yes"/>
			<point x="300" y="386"/>
			<point x="284" y="385"/>
			<point x="267" y="384" type="curve"/>
			<point x="288" y="370" type="line"/>
			<point x="399" y="377"/>
			<point x="480" y="441"/>
			<point x="480" y="541" type="curve" smooth="yes"/>
			<point x="480" y="643"/>
			<point x="403" y="705"/>
			<point x="282" y="705" type="curve" smooth="yes"/>
			<point x="85" y="705" type="line"/>
			<point x="80" y="696" type="line"/>
			<point x="84" y="600"/>
			<point x="85" y="479"/>
			<point x="85" y="368" type="curve" smooth="yes"/>
			<point x="85" y="252"/>
			<point x="84" y="115"/>
			<point x="80" y="12" type="curve"/>
		</contour>
		<contour>
			<point x="180" y="66" type="line"/>
			<point x="177" y="158"/>
			<point x="175" y="270"/>
			<point x="175" y="369" type="curve" smooth="yes"/>
			<point x="175" y="450"/>
			<point x="177" y="551"/>
			<point x="180" y="647" type="curve"/>
			<point x="170" y="620" type="line"/>
			<point x="263" y="620" type="line" smooth="yes"/>
			<point x="343" y="620"/>
			<point x="380" y="592"/>
			<point x="380" y="519" type="curve" smooth="yes"/>
			<point x="380" y="457"/>
			<point x="341" y="408"/>
			<point x="253" y="408" type="curve" smooth="yes"/>
			<point x="174" y="408" type="line"/>
			<point x="174" y="336" type="line"/>
			<point x="257" y="338" type="line" smooth="yes"/>
			<point x="365" y="341"/>
			<point x="426" y="304"/>
			<point x="426" y="213" type="curve" smooth="yes"/>
			<point x="426" y="122"/>
			<point x="374" y="85"/>
			<point x="255" y="85" type="curve" smooth="yes"/>
			<point x="130" y="85" type="line"/>
		</contour>
	</outline>
</glyph>
<glyph name="H" format="2">
	<advance width="669"/>
	<unicode hex="0048"/>
	<outline>
		<contour>
			<point x="489" y="0" type="line"/>
			<point x="584" y="0" type="line"/>
			<point x="589" y="12" type="line"/>
			<point x="589" y="74"/>
			<point x="579" y="260"/>
			<point x="579" y="352" type="curve" smooth="yes"/>
			<point x="579" y="444"/>
			<point x="585" y="597"/>
			<point x="589" y="690" type="curve"/>
			<point x="584" y="700" type="line"/>
			<point x="484" y="700" type="line"/>
			<point x="479" y="690" type="line"/>
			<point x="483" y="597"/>
			<point x="489" y="445"/>
			<point x="489" y="352" type="curve" smooth="yes"/>
			<point x="489" y="259"/>
			<point x="484" y="74"/>
			<point x="484" y="11" type="curve"/>
		</contour>
		<contour>
			<point x="90" y="0" type="line"/>
			<point x="185" y="0" type="line"/>
			<point x="190" y="12" type="line"/>
			<point x="190" y="73"/>
			<point x="180" y="257"/>
			<point x="180" y="352" type="curve" smooth="yes"/>
			<point x="180" y="447"/>
			<point x="186" y="597"/>
			<point x="190" y="690" type="curve"/>
			<point x="185" y="700" type="line"/>
			<point x="85" y="700" type="line"/>
			<point x="80" y="690" type="line"/>
			<point x="84" y="597"/>
			<point x="90" y="448"/>
			<point x="90" y="352" type="curve" smooth="yes"/>
			<point x="90" y="256"/>
			<point x="85" y="74"/>
			<point x="85" y="11" type="curve"/>
		</contour>
		<contour>
			<point x="145" y="311" type="line"/>
			<point x="150" y="311"/>
			<point x="288" y="313"/>
			<point x="329" y="313" type="curve" smooth="yes"/>
			<point x="370" y="313"/>
			<point x="501" y="311"/>
			<point x="506" y="311" type="curve"/>
			<point x="506" y="400" type="line"/>
			<point x="502" y="400"/>
			<point x="369" y="398"/>
			<point x="329" y="398" type="curve" smooth="yes"/>
			<point x="289" y="398"/>
			<point x="149" y="400"/>
			<point x="145" y="400" type="curve"/>
		</contour>
	</outline>
</glyph>
<glyph name="I" format="2">
	<advance width="431"/>
	<unicode hex="0049"/>
	<anchor x="364" y="7" name="ogonek"/>
	<anchor x="216" y="700" name="top"/>
	<anchor x="15" y="700" name="topleft"/>
	<anchor x="216" y="0" name="bottom"/>
	<outline>
		<contour>
			<point x="163" y="55" type="curve"/>
			<point x="269" y="55" type="line"/>
			<point x="266" y="108"/>
			<point x="261" y="256"/>
			<point x="261" y="342" type="curve" smooth="yes"/>
			<point x="261" y="428"/>
			<point x="266" y="589"/>
			<point x="269" y="638" type="curve"/>
			<point x="240" y="610" type="line"/>
			<point x="274" y="608"/>
			<point x="342" y="607"/>
			<point x="384" y="605" type="curve"/>
			<point x="394" y="613" type="line"/>
			<point x="394" y="692" type="line"/>
			<point x="387" y="700" type="line"/>
			<point x="319" y="699"/>
			<point x="267" y="698"/>
			<point x="215" y="698" type="curve" smooth="yes"/>
			<point x="164" y="698"/>
			<point x="110" y="699"/>
			<point x="41" y="700" type="curve"/>
			<point x="35" y="693" type="line"/>
			<point x="35" y="613" type="line"/>
			<point x="41" y="605" type="line"/>
			<point x="99" y="607"/>
			<point x="142.98016" y="608.99906"/>
			<point x="185" y="611" type="curve"/>
			<point x="163" y="638" type="line"/>
			<point x="166" y="589"/>
			<point x="171" y="427"/>
			<point x="171" y="342" type="curve" smooth="yes"/>
			<point x="171" y="257"/>
			<point x="166" y="108"/>
		</contour>
		<contour>
			<point x="42" y="0" type="line"/>
			<point x="111" y="1"/>
			<point x="164" y="2"/>
			<point x="216" y="2" type="curve" smooth="yes"/>
			<point x="268" y="2"/>
			<point x="319" y="1"/>
			<point x="387" y="0" type="curve"/>
			<point x="396" y="13" type="line"/>
			<point x="396" y="80" type="line"/>
			<point x="384" y="95" type="line"/>
			<point x="317" y="90"/>
			<point x="266" y="88"/>
			<point x="215" y="88" type="curve" smooth="yes"/>
			<point x="163" y="88"/>
			<point x="109" y="90"/>
			<point x="41" y="95" type="curve"/>
			<point x="35" y="80" type="line"/>
			<point x="35" y="12" type="line"/>
		</contour>
	</outline>
</glyph>
<glyph name="J" format="2">
	<advance width="282"/>
	<unicode hex="004A"/>
	<anchor x="152" y="699" name="top"/>
	<anchor x="141" y="0" name="bottom"/>
	<outline>
		<contour>
			<point x="-14" y="-128" type="curve"/>
			<point x="-17" y="-130" type="line"/>
			<point x="20" y="-191" type="line"/>
			<point x="23" y="-194" type="line"/>
			<point x="158" y="-135"/>
			<point x="215" y="-49"/>
			<point x="214" y="48" type="curve" smooth="yes"/>
			<point x="211" y="310" type="line" smooth="yes"/>
			<point x="210" y="439"/>
			<point x="213" y="566"/>
			<point x="218" y="690" type="curve"/>
			<point x="208" y="700" type="line"/>
			<point x="129" y="700" type="line"/>
			<point x="119" y="690" type="line"/>
			<point x="124" y="595"/>
			<point x="126" y="497"/>
			<point x="125" y="398" type="curve" smooth="yes"/>
			<point x="123" y="59" type="line" smooth="yes"/>
			<point x="122" y="-26"/>
			<point x="50" y="-81"/>
		</contour>
	</outline>
</glyph>
<glyph name="M" format="2">
	<advance width="879"/>
	<unicode hex="004D"/>
	<guideline x="383" y="551" angle="0"/>
	<guideline x="474" y="314" angle="0"/>
	<outline>
		<contour>
			<point x="61" y="0" type="line"/>
			<point x="149" y="0" type="line"/>
			<point x="153" y="10" type="line"/>
			<point x="169" y="214"/>
			<point x="200" y="422"/>
			<point x="231" y="650" type="curve"/>
			<point x="189" y="650" type="line"/>
			<point x="238" y="523"/>
			<point x="339" y="178"/>
			<point x="376" y="10" type="curve"/>
			<point x="383" y="0" type="line"/>
			<point x="494" y="0" type="line"/>
			<point x="501" y="9" type="line"/>
			<point x="539" y="164"/>
			<point x="637" y="493"/>
			<point x="672" y="650" type="curve"/>
			<point x="639" y="650" type="line"/>
			<point x="660" y="482"/>
			<point x="692" y="248"/>
			<point x="718" y="10" type="curve"/>
			<point x="725" y="0" type="line"/>
			<point x="819" y="0" type="line"/>
			<point x="824" y="10" type="line"/>
			<point x="796" y="174"/>
			<point x="742" y="518"/>
			<point x="729" y="694" type="curve"/>
			<point x="715" y="700" type="line"/>
			<point x="599" y="700" type="line"/>
			<point x="593" y="692" type="line"/>
			<point x="555" y="492"/>
			<point x="483" y="270"/>
			<point x="433" y="63" type="curve"/>
			<point x="463" y="63" type="line"/>
			<point x="405" y="277"/>
			<point x="330" y="484"/>
			<point x="285" y="693" type="curve"/>
			<point x="279" y="700" type="line"/>
			<point x="157" y="700" type="line"/>
			<point x="149" y="694" type="line"/>
			<point x="136" y="506"/>
			<point x="90" y="197"/>
			<point x="55" y="10" type="curve"/>
		</contour>
	</outline>
</glyph>
<glyph name="O" format="2">
	<advance width="730"/>
	<unicode hex="004F"/>
	<anchor x="365" y="0" name="bottom"/>
	<anchor x="661" y="10" name="ogonek"/>
	<anchor x="365" y="700" name="top"/>
	<anchor x="715" y="700" name="topright"/>
	<anchor x="15" y="700" name="topleft"/>
	<anchor x="365" y="350" name="center"/>
	<outline>
		<contour>
			<point x="365" y="-10" type="curve" smooth="yes"/>
			<point x="548" y="-10"/>
			<point x="660" y="122"/>
			<point x="660" y="350" type="curve" smooth="yes"/>
			<point x="660" y="578"/>
			<point x="548" y="710"/>
			<point x="365" y="710" type="curve" smooth="yes"/>
			<point x="182" y="710"/>
			<point x="70" y="578"/>
			<point x="70" y="350" type="curve" smooth="yes"/>
			<point x="70" y="122"/>
			<point x="182" y="-10"/>
		</contour>
		<contour>
			<point x="365" y="80" type="curve" smooth="yes"/>
			<point x="240" y="80"/>
			<point x="170" y="171"/>
			<point x="170" y="350" type="curve" smooth="yes"/>
			<point x="170" y="529"/>
			<point x="240" y="620"/>
			<point x="365" y="620" type="curve" smooth="yes"/>
			<point x="490" y="620"/>
			<point x="560" y="529"/>
			<point x="560" y="350" type="curve" smooth="yes"/>
			<point x="560" y="171"/>
			<point x="490" y="80"/>
		</contour>
	</outline>
</glyph>
<glyph name="Q" format="2">
	<advance width="730"/>
	<unicode hex="0051"/>
	<outline>
		<contour>
			<point x="365" y="-10" type="curve" smooth="yes"/>
			<point x="548" y="-10"/>
			<point x="660" y="122"/>
			<point x="660" y="345" type="curve" smooth="yes"/>
			<point x="660" y="578"/>
			<point x="548" y="710"/>
			<point x="365" y="710" type="curve" smooth="yes"/>
			<point x="182" y="710"/>
			<point x="70" y="578"/>
			<point x="70" y="345" type="curve" smooth="yes"/>
			<point x="70" y="122"/>
			<point x="182" y="-10"/>
		</contour>
		<contour>
			<point x="439" y="-211" type="line"/>
			<point x="535" y="-154" type="line"/>
			<point x="538" y="-141" type="line"/>
			<point x="398" y="22" type="line"/>
			<point x="336" y="0" type="line"/>
			<point x="420" y="-207" type="line"/>
		</contour>
		<contour>
			<point x="365" y="80" type="curve" smooth="yes"/>
			<point x="240" y="80"/>
			<point x="170" y="171"/>
			<point x="170" y="345" type="curve" smooth="yes"/>
			<point x="170" y="529"/>
			<point x="240" y="620"/>
			<point x="365" y="620" type="curve" smooth="yes"/>
			<point x="490" y="620"/>
			<point x="560" y="529"/>
			<point x="560" y="345" type="curve" smooth="yes"/>
			<point x="560" y="171"/>
			<point x="490" y="80"/>
		</contour>
	</outline>
</glyph>
<glyph name="R" format="2">
	<advance width="554"/>
	<unicode hex="0052"/>
	<anchor x="883" y="700" name="top"/>
	<anchor x="883" y="0" name="bottom"/>
	<outline>
		<contour>
			<point x="85" y="0" type="line"/>
			<point x="190" y="0" type="line"/>
			<point x="195" y="10" type="line"/>
			<point x="189" y="110"/>
			<point x="180" y="232"/>
			<point x="180" y="405" type="curve" smooth="yes"/>
			<point x="180" y="523"/>
			<point x="183" y="562"/>
			<point x="186" y="652" type="curve"/>
			<point x="156" y="620" type="line"/>
			<point x="253" y="620" type="line" smooth="yes"/>
			<point x="345" y="620"/>
			<point x="391" y="570"/>
			<point x="391" y="496" type="curve" smooth="yes"/>
			<point x="391" y="427"/>
			<point x="333" y="377"/>
			<point x="284" y="377" type="curve" smooth="yes"/>
			<point x="173" y="377" type="line"/>
			<point x="173" y="297" type="line"/>
			<point x="249" y="297" type="line" smooth="yes"/>
			<point x="392" y="297"/>
			<point x="491" y="362"/>
			<point x="491" y="502" type="curve"/>
			<point x="491" y="644"/>
			<point x="401" y="700"/>
			<point x="253" y="700" type="curve" smooth="yes"/>
			<point x="85" y="700" type="line"/>
			<point x="80" y="690" type="line"/>
			<point x="84" y="597"/>
			<point x="90" y="501"/>
			<point x="90" y="383" type="curve" smooth="yes"/>
			<point x="90" y="207"/>
			<point x="84" y="108"/>
			<point x="80" y="10" type="curve"/>
		</contour>
		<contour>
			<point x="447" y="-9" type="curve" smooth="yes"/>
			<point x="478" y="-9"/>
			<point x="503" y="1"/>
			<point x="534" y="21" type="curve"/>
			<point x="518" y="80" type="line"/>
			<point x="439" y="74" type="line"/>
			<point x="464" y="65" type="line"/>
			<point x="350" y="320" type="line"/>
			<point x="268" y="301" type="line"/>
			<point x="338" y="103" type="line" smooth="yes"/>
			<point x="367" y="20"/>
			<point x="397" y="-9"/>
		</contour>
	</outline>
</glyph>
<glyph name="S" format="2">
	<advance width="500"/>
	<unicode hex="0053"/>
	<anchor x="248" y="700" name="top"/>
	<anchor x="248" y="0" name="bottom"/>
	<outline>
		<contour>
			<point x="274" y="-11" type="curve"/>
			<point x="379" y="-11"/>
			<point x="470" y="70"/>
			<point x="470" y="195" type="curve" smooth="yes"/>
			<point x="470" y="417"/>
			<point x="149" y="412"/>
			<point x="149" y="546" type="curve"/>
			<point x="149" y="597"/>
			<point x="183" y="627"/>
			<point x="240" y="627" type="curve" smooth="yes"/>
			<point x="298" y="627"/>
			<point x="384" y="602"/>
			<point x="429" y="585" type="curve"/>
			<point x="435" y="588" type="line"/>
			<point x="459" y="674" type="line"/>
			<point x="455" y="681" type="line"/>
			<point x="381" y="703"/>
			<point x="321" y="710"/>
			<point x="260" y="710" type="curve" smooth="yes"/>
			<point x="154" y="710"/>
			<point x="59" y="636"/>
			<point x="59" y="527" type="curve"/>
			<point x="59" y="331"/>
			<point x="380" y="310"/>
			<point x="380" y="186" type="curve"/>
			<point x="380" y="106"/>
			<point x="330" y="74"/>
			<point x="263" y="74" type="curve" smooth="yes"/>
			<point x="207" y="74"/>
			<point x="149" y="93"/>
			<point x="64" y="119" type="curve"/>
			<point x="56" y="117" type="line"/>
			<point x="30" y="30" type="line"/>
			<point x="35" y="22" type="line"/>
			<point x="103" y="4"/>
			<point x="180" y="-11"/>
		</contour>
	</outline>
</glyph>
<glyph name="T" format="2">
	<advance width="528"/>
	<unicode hex="0054"/>
	<anchor x="264" y="350" name="center"/>
	<anchor x="264" y="0" name="bottom"/>
	<anchor x="264" y="700" name="top"/>
	<outline>
		<contour>
			<point x="221" y="-4" type="line"/>
			<point x="313" y="-4" type="line"/>
			<point x="318" y="6" type="line"/>
			<point x="312" y="113"/>
			<point x="312" y="220"/>
			<point x="312" y="347" type="curve" smooth="yes"/>
			<point x="312" y="511"/>
			<point x="312" y="618"/>
			<point x="312" y="630" type="curve"/>
			<point x="222" y="630" type="line"/>
			<point x="222" y="618"/>
			<point x="222" y="513"/>
			<point x="222" y="348" type="curve" smooth="yes"/>
			<point x="222" y="219"/>
			<point x="222" y="113"/>
			<point x="216" y="6" type="curve"/>
		</contour>
		<contour>
			<point x="40" y="601" type="line"/>
			<point x="113" y="608"/>
			<point x="150" y="612"/>
			<point x="265" y="612" type="curve" smooth="yes"/>
			<point x="382" y="612"/>
			<point x="413" y="608"/>
			<point x="488" y="601" type="curve"/>
			<point x="498" y="606" type="line"/>
			<point x="498" y="695" type="line"/>
			<point x="488" y="700" type="line"/>
			<point x="432" y="699"/>
			<point x="321" y="697"/>
			<point x="265" y="697" type="curve" smooth="yes"/>
			<point x="189" y="697"/>
			<point x="96" y="699"/>
			<point x="40" y="700" type="curve"/>
			<point x="30" y="695" type="line"/>
			<point x="30" y="606" type="line"/>
		</contour>
	</outline>
</glyph>
<glyph name="Z" format="2">
	<advance width="516"/>
	<unicode hex="005A"/>
	<anchor x="429" y="350" name="center"/>
	<anchor x="249" y="11" name="bottom"/>
	<anchor x="293" y="700" name="top"/>
	<outline>
		<contour>
			<point x="31" y="0" type="line"/>
			<point x="97" y="3"/>
			<point x="153" y="6"/>
			<point x="248" y="6" type="curve" smooth="yes"/>
			<point x="331" y="6"/>
			<point x="453" y="3"/>
			<point x="490" y="0" type="curve"/>
			<point x="496" y="5" type="line"/>
			<point x="496" y="85" type="line"/>
			<point x="491" y="90" type="line"/>
			<point x="341" y="80"/>
			<point x="270" y="81"/>
			<point x="95" y="81" type="curve"/>
			<point x="114" y="47" type="line"/>
			<point x="202" y="192"/>
			<point x="378" y="457"/>
			<point x="492" y="639" type="curve"/>
			<point x="495" y="647" type="line"/>
			<point x="488" y="697" type="line"/>
			<point x="481" y="700" type="line"/>
			<point x="424" y="694"/>
			<point x="326" y="695"/>
			<point x="267" y="695" type="curve" smooth="yes"/>
			<point x="202.89862" y="695"/>
			<point x="124.00635" y="697.0414"/>
			<point x="53" y="700" type="curve"/>
			<point x="46" y="693" type="line"/>
			<point x="46" y="619" type="line"/>
			<point x="51" y="613" type="line"/>
			<point x="162.074" y="620.93386"/>
			<point x="228.51247" y="622"/>
			<point x="409" y="622" type="curve"/>
			<point x="397" y="649" type="line"/>
			<point x="307" y="500"/>
			<point x="143" y="255"/>
			<point x="22" y="79" type="curve"/>
			<point x="20" y="74" type="line"/>
			<point x="26" y="5" type="line"/>
		</contour>
	</outline>
</glyph>
<glyph name="c" format="2">
	<advance width="459"/>
	<unicode hex="0063"/>
	<anchor x="269" y="510" name="top"/>
	<anchor x="257" y="0" name="bottom"/>
	<outline>
		<contour>
			<point x="385" y="415" type="curve"/>
			<point x="392" y="415" type="line"/>
			<point x="421" y="470" type="line"/>
			<point x="421" y="476" type="line"/>
			<point x="383.55884" y="496.69117"/>
			<point x="332.11801" y="520"/>
			<point x="262" y="520" type="curve" smooth="yes"/>
			<point x="119" y="520"/>
			<point x="50" y="430"/>
			<point x="50" y="254" type="curve" smooth="yes"/>
			<point x="50" y="74"/>
			<point x="120" y="-10"/>
			<point x="250" y="-10" type="curve" smooth="yes"/>
			<point x="321" y="-10"/>
			<point x="379" y="13"/>
			<point x="428" y="42" type="curve"/>
			<point x="429" y="49" type="line"/>
			<point x="408" y="93" type="line"/>
			<point x="402" y="97" type="line"/>
			<point x="357" y="79"/>
			<point x="319" y="65"/>
			<point x="265" y="65" type="curve" smooth="yes"/>
			<point x="177" y="65"/>
			<point x="140" y="122"/>
			<point x="140" y="258" type="curve" smooth="yes"/>
			<point x="140" y="399.75401"/>
			<point x="183" y="446"/>
			<point x="257" y="446" type="curve" smooth="yes"/>
			<point x="319" y="446"/>
			<point x="356.52262" y="427.76572"/>
		</contour>
	</outline>
</glyph>
<glyph name="d" format="2">
	<advance width="542"/>
	<unicode hex="0064"/>
	<anchor x="271" y="0" name="bottom"/>
	<anchor x="271" y="780" name="top"/>
	<anchor x="527" y="780" name="topright"/>
	<anchor x="271" y="255" name="center"/>
	<outline>
		<contour>
			<point x="228" y="-10" type="curve" smooth="yes"/>
			<point x="312" y="-10"/>
			<point x="363.00056" y="56.00126"/>
			<point x="383" y="101" type="curve"/>
			<point x="339" y="64" type="line"/>
			<point x="388" y="64" type="line"/>
			<point x="366" y="93" type="line"/>
			<point x="366" y="57" type="line" smooth="yes"/>
			<point x="366" y="12"/>
			<point x="376.52174" y="-9"/>
			<point x="410" y="-9" type="curve" smooth="yes"/>
			<point x="431" y="-9"/>
			<point x="475" y="-5"/>
			<point x="498" y="0" type="curve"/>
			<point x="502" y="65" type="line"/>
			<point x="409" y="84" type="line"/>
			<point x="458" y="37" type="line"/>
			<point x="447.09836" y="132"/>
			<point x="450" y="227"/>
			<point x="450" y="322" type="curve" smooth="yes"/>
			<point x="450" y="447"/>
			<point x="455" y="693"/>
			<point x="455" y="718" type="curve" smooth="yes"/>
			<point x="455" y="760"/>
			<point x="440" y="780"/>
			<point x="399" y="780" type="curve" smooth="yes"/>
			<point x="363.99306" y="780"/>
			<point x="321.10944" y="769.23357"/>
			<point x="282" y="761" type="curve"/>
			<point x="289" y="700" type="line"/>
			<point x="378" y="691" type="line"/>
			<point x="355" y="723" type="line"/>
			<point x="363" y="607"/>
			<point x="365" y="377"/>
			<point x="365" y="266" type="curve" smooth="yes"/>
			<point x="365" y="125"/>
			<point x="323" y="70"/>
			<point x="242" y="70" type="curve" smooth="yes"/>
			<point x="179" y="70"/>
			<point x="145" y="122"/>
			<point x="145" y="240" type="curve" smooth="yes"/>
			<point x="145" y="265" type="line" smooth="yes"/>
			<point x="145" y="385.58896"/>
			<point x="182.26214" y="433"/>
			<point x="246" y="433" type="curve" smooth="yes"/>
			<point x="293.30935" y="433"/>
			<point x="336" y="403"/>
			<point x="383" y="374" type="curve"/>
			<point x="401" y="454" type="line"/>
			<point x="375" y="478"/>
			<point x="311.32653" y="520"/>
			<point x="232" y="520" type="curve" smooth="yes"/>
			<point x="135" y="520"/>
			<point x="50" y="417.01961"/>
			<point x="50" y="260" type="curve" smooth="yes"/>
			<point x="50" y="235" type="line" smooth="yes"/>
			<point x="50" y="52"/>
			<point x="125" y="-10"/>
		</contour>
	</outline>
</glyph>
<glyph name="i" format="2">
	<advance width="280"/>
	<unicode hex="0069"/>
	<anchor x="140" y="0" name="bottom"/>
	<outline>
		<contour>
			<point x="110" y="0" type="line"/>
			<point x="205" y="0" type="line"/>
			<point x="210" y="10" type="line"/>
			<point x="201" y="86"/>
			<point x="200" y="195"/>
			<point x="200" y="275" type="curve" smooth="yes"/>
			<point x="200" y="458" type="line" smooth="yes"/>
			<point x="200" y="499"/>
			<point x="186" y="520"/>
			<point x="144" y="520" type="curve" smooth="yes"/>
			<point x="114.72115" y="520"/>
			<point x="65.08431" y="512.01946"/>
			<point x="39" y="506" type="curve"/>
			<point x="47" y="438" type="line"/>
			<point x="124" y="443" type="line"/>
			<point x="105" y="472" type="line"/>
			<point x="112" y="423"/>
			<point x="115" y="335"/>
			<point x="115" y="275" type="curve" smooth="yes"/>
			<point x="115" y="202"/>
			<point x="113" y="79"/>
			<point x="105" y="10" type="curve"/>
		</contour>
		<component base="dotaccentcomb" xOffset="70"/>
	</outline>
</glyph>
<glyph name="k" format="2">
	<advance width="503"/>
	<unicode hex="006B"/>
	<outline>
		<contour>
			<point x="94" y="0" type="line"/>
			<point x="193" y="0" type="line"/>
			<point x="198" y="10" type="line"/>
			<point x="192" y="93"/>
			<point x="188" y="252"/>
			<point x="188" y="352" type="curve" smooth="yes"/>
			<point x="188" y="459"/>
			<point x="193" y="697"/>
			<point x="193" y="718" type="curve" smooth="yes"/>
			<point x="193" y="757"/>
			<point x="177" y="780"/>
			<point x="132" y="780" type="curve" smooth="yes"/>
			<point x="100" y="780"/>
			<point x="61" y="770"/>
			<point x="30" y="762" type="curve"/>
			<point x="38" y="699" type="line"/>
			<point x="109" y="703" type="line"/>
			<point x="88" y="732" type="line"/>
			<point x="94" y="646"/>
			<point x="99" y="487"/>
			<point x="99" y="356" type="curve" smooth="yes"/>
			<point x="99" y="244"/>
			<point x="95" y="93"/>
			<point x="89" y="10" type="curve"/>
		</contour>
		<contour>
			<point x="166" y="322" type="line"/>
			<point x="166" y="237" type="line"/>
			<point x="212" y="237" type="line" smooth="yes"/>
			<point x="226.66403" y="237"/>
			<point x="371" y="380"/>
			<point x="477" y="499" type="curve"/>
			<point x="473" y="510" type="line"/>
			<point x="383" y="510" type="line"/>
			<point x="316.84762" y="427.04702"/>
			<point x="211.63905" y="322"/>
			<point x="202" y="322" type="curve" smooth="yes"/>
		</contour>
		<contour>
			<point x="258" y="299" type="line"/>
			<point x="193" y="267" type="line"/>
			<point x="265" y="144" type="line" smooth="yes"/>
			<point x="317.59409" y="54.15177"/>
			<point x="349" y="-9"/>
			<point x="396" y="-8" type="curve" smooth="yes"/>
			<point x="423" y="-7"/>
			<point x="450" y="11"/>
			<point x="488" y="38" type="curve"/>
			<point x="467" y="85" type="line"/>
			<point x="388" y="75" type="line"/>
			<point x="429" y="53" type="line"/>
		</contour>
	</outline>
</glyph>
<glyph name="l" format="2">
	<advance width="308"/>
	<unicode hex="006C"/>
	<anchor x="154" y="0" name="bottom"/>
	<anchor x="154" y="780" name="top"/>
	<anchor x="293" y="780" name="topright"/>
	<anchor x="154" y="390" name="center"/>
	<outline>
		<contour>
			<point x="162" y="-10" type="curve" smooth="yes"/>
			<point x="199" y="-10"/>
			<point x="231" y="-5"/>
			<point x="264" y="0" type="curve"/>
			<point x="268" y="64" type="line"/>
			<point x="190" y="79" type="line"/>
			<point x="208" y="52" type="line"/>
			<point x="198" y="143"/>
			<point x="198" y="270"/>
			<point x="198" y="384" type="curve" smooth="yes"/>
			<point x="198" y="494"/>
			<point x="203" y="697"/>
			<point x="203" y="718" type="curve" smooth="yes"/>
			<point x="203" y="757"/>
			<point x="187" y="780"/>
			<point x="142" y="780" type="curve" smooth="yes"/>
			<point x="110" y="780"/>
			<point x="71" y="770"/>
			<point x="40" y="762" type="curve"/>
			<point x="48" y="699" type="line"/>
			<point x="123" y="703" type="line"/>
			<point x="102" y="732" type="line"/>
			<point x="114" y="464"/>
			<point x="113" y="553"/>
			<point x="113" y="384" type="curve" smooth="yes"/>
			<point x="113" y="275"/>
			<point x="104" y="97"/>
			<point x="104" y="61" type="curve" smooth="yes"/>
			<point x="104" y="16"/>
			<point x="126" y="-10"/>
		</contour>
	</outline>
</glyph>
<glyph name="m" format="2">
	<advance width="857"/>
	<unicode hex="006D"/>
	<guideline x="409" y="251" angle="0"/>
	<outline>
		<contour>
			<point x="742" y="-10" type="curve" smooth="yes"/>
			<point x="762" y="-10"/>
			<point x="794" y="-4"/>
			<point x="813" y="0" type="curve"/>
			<point x="817" y="64" type="line"/>
			<point x="723" y="83" type="line"/>
			<point x="764" y="33" type="line"/>
			<point x="764" y="365" type="line" smooth="yes"/>
			<point x="764" y="460"/>
			<point x="715" y="520"/>
			<point x="613" y="520" type="curve" smooth="yes"/>
			<point x="532" y="520"/>
			<point x="466.97138" y="472.88732"/>
			<point x="451" y="410" type="curve"/>
			<point x="495" y="449" type="line"/>
			<point x="458" y="449" type="line"/>
			<point x="474" y="403" type="line"/>
			<point x="474" y="457"/>
			<point x="430" y="520"/>
			<point x="327" y="520" type="curve" smooth="yes"/>
			<point x="252.91195" y="520"/>
			<point x="193" y="474"/>
			<point x="172" y="409" type="curve"/>
			<point x="204" y="449" type="line"/>
			<point x="168" y="449" type="line"/>
			<point x="184" y="413" type="line"/>
			<point x="184" y="458" type="line" smooth="yes"/>
			<point x="184" y="497"/>
			<point x="172" y="520"/>
			<point x="138" y="520" type="curve" smooth="yes"/>
			<point x="109" y="520"/>
			<point x="73" y="513"/>
			<point x="40" y="505" type="curve"/>
			<point x="47" y="440" type="line"/>
			<point x="108" y="443" type="line"/>
			<point x="89" y="472" type="line"/>
			<point x="96" y="423"/>
			<point x="99" y="334"/>
			<point x="99" y="275" type="curve" smooth="yes"/>
			<point x="99" y="197"/>
			<point x="97" y="80"/>
			<point x="89" y="10" type="curve"/>
			<point x="94" y="0" type="line"/>
			<point x="189" y="0" type="line"/>
			<point x="194" y="10" type="line"/>
			<point x="187" y="77"/>
			<point x="184" y="197"/>
			<point x="184" y="275" type="curve" smooth="yes"/>
			<point x="184" y="393"/>
			<point x="218" y="440"/>
			<point x="292" y="440" type="curve" smooth="yes"/>
			<point x="365" y="440"/>
			<point x="389" y="394"/>
			<point x="389" y="275" type="curve" smooth="yes"/>
			<point x="389" y="225"/>
			<point x="387" y="55"/>
			<point x="379" y="6" type="curve"/>
			<point x="383" y="0" type="line"/>
			<point x="479" y="0" type="line"/>
			<point x="484" y="6" type="line"/>
			<point x="477" y="88"/>
			<point x="474" y="130"/>
			<point x="474" y="275" type="curve" smooth="yes"/>
			<point x="474" y="390"/>
			<point x="505" y="440"/>
			<point x="580" y="440" type="curve" smooth="yes"/>
			<point x="658" y="440"/>
			<point x="679" y="390"/>
			<point x="679" y="275" type="curve" smooth="yes"/>
			<point x="679" y="215"/>
			<point x="675" y="125"/>
			<point x="675" y="65" type="curve" smooth="yes"/>
			<point x="675" y="13"/>
			<point x="704" y="-10"/>
		</contour>
	</outline>
</glyph>
<glyph name="p" format="2">
	<advance width="552"/>
	<unicode hex="0070"/>
	<outline>
		<contour>
			<point x="97" y="-220" type="line"/>
			<point x="199" y="-220" type="line"/>
			<point x="204" y="-210" type="line"/>
			<point x="192" y="-21"/>
			<point x="187" y="30"/>
			<point x="187" y="244" type="curve" smooth="yes"/>
			<point x="187" y="389"/>
			<point x="232" y="440"/>
			<point x="307" y="440" type="curve" smooth="yes"/>
			<point x="374" y="440"/>
			<point x="407" y="393"/>
			<point x="407" y="279" type="curve" smooth="yes"/>
			<point x="407" y="254" type="line" smooth="yes"/>
			<point x="407" y="139"/>
			<point x="375" y="78"/>
			<point x="318" y="78" type="curve" smooth="yes"/>
			<point x="275.84868" y="78"/>
			<point x="231" y="97"/>
			<point x="169" y="128" type="curve"/>
			<point x="139" y="51" type="line"/>
			<point x="181" y="28"/>
			<point x="244" y="-10"/>
			<point x="317" y="-10" type="curve" smooth="yes"/>
			<point x="427" y="-10"/>
			<point x="502" y="102"/>
			<point x="502" y="258" type="curve" smooth="yes"/>
			<point x="502" y="283" type="line" smooth="yes"/>
			<point x="502" y="443"/>
			<point x="442" y="520"/>
			<point x="340" y="520" type="curve" smooth="yes"/>
			<point x="248" y="520"/>
			<point x="184" y="472"/>
			<point x="166" y="393" type="curve"/>
			<point x="210" y="452" type="line"/>
			<point x="159" y="452" type="line"/>
			<point x="188" y="415" type="line"/>
			<point x="188" y="448" type="line" smooth="yes"/>
			<point x="188" y="499"/>
			<point x="179" y="520"/>
			<point x="136" y="520" type="curve" smooth="yes"/>
			<point x="106" y="520"/>
			<point x="66" y="512"/>
			<point x="33" y="504" type="curve"/>
			<point x="40" y="439" type="line"/>
			<point x="108" y="442" type="line"/>
			<point x="89" y="472" type="line"/>
			<point x="96.69104" y="389.32133"/>
			<point x="100" y="338"/>
			<point x="102" y="176" type="curve" smooth="yes"/>
			<point x="102" y="3"/>
			<point x="101.28768" y="-60.36517"/>
			<point x="92" y="-210" type="curve"/>
		</contour>
	</outline>
</glyph>
<glyph name="s" format="2">
	<advance width="470"/>
	<unicode hex="0073"/>
	<anchor x="251" y="510" name="top"/>
	<anchor x="220" y="0" name="bottom"/>
	<outline>
		<contour>
			<point x="233" y="-10" type="curve" smooth="yes"/>
			<point x="345" y="-10"/>
			<point x="425" y="64"/>
			<point x="425" y="147" type="curve"/>
			<point x="425" y="332"/>
			<point x="157" y="305"/>
			<point x="157" y="393" type="curve"/>
			<point x="157" y="428"/>
			<point x="179" y="448"/>
			<point x="236" y="448" type="curve" smooth="yes"/>
			<point x="282" y="448"/>
			<point x="331" y="426"/>
			<point x="370" y="403" type="curve"/>
			<point x="377" y="405" type="line"/>
			<point x="412" y="470" type="line"/>
			<point x="410" y="477" type="line"/>
			<point x="364" y="506"/>
			<point x="302" y="520"/>
			<point x="248" y="520" type="curve" smooth="yes"/>
			<point x="151" y="520"/>
			<point x="74" y="460"/>
			<point x="74" y="374" type="curve" smooth="yes"/>
			<point x="74" y="201"/>
			<point x="342" y="236"/>
			<point x="342" y="129" type="curve" smooth="yes"/>
			<point x="342" y="90"/>
			<point x="312" y="65"/>
			<point x="255" y="65" type="curve"/>
			<point x="196" y="65"/>
			<point x="133.18283" y="85.92873"/>
			<point x="74" y="109" type="curve"/>
			<point x="66" y="106" type="line"/>
			<point x="41" y="38" type="line"/>
			<point x="42" y="31" type="line"/>
			<point x="99" y="9"/>
			<point x="174" y="-10"/>
		</contour>
	</outline>
</glyph>
<glyph name="t" format="2">
	<advance width="343"/>
	<unicode hex="0074"/>
	<anchor x="201" y="0" name="bottom"/>
	<anchor x="152" y="510" name="top"/>
	<anchor x="324" y="780" name="topright"/>
	<anchor x="152" y="255" name="center"/>
	<outline>
		<contour>
			<point x="212" y="-10" type="curve" smooth="yes"/>
			<point x="262" y="-10"/>
			<point x="299" y="3"/>
			<point x="326" y="20" type="curve"/>
			<point x="328" y="25" type="line"/>
			<point x="308" y="81" type="line"/>
			<point x="304" y="84" type="line"/>
			<point x="293" y="80"/>
			<point x="276" y="70"/>
			<point x="250" y="70" type="curve" smooth="yes"/>
			<point x="192" y="70"/>
			<point x="172" y="102"/>
			<point x="172" y="176" type="curve" smooth="yes"/>
			<point x="172" y="292"/>
			<point x="178" y="516"/>
			<point x="181" y="610" type="curve"/>
			<point x="171" y="620" type="line"/>
			<point x="85" y="600" type="line"/>
			<point x="77" y="590" type="line"/>
			<point x="91" y="385"/>
			<point x="87" y="243"/>
			<point x="87" y="172" type="curve" smooth="yes"/>
			<point x="87" y="41"/>
			<point x="132" y="-10"/>
		</contour>
		<contour>
			<point x="16" y="436" type="line"/>
			<point x="51" y="437"/>
			<point x="104" y="439"/>
			<point x="139" y="439" type="curve" smooth="yes"/>
			<point x="155" y="439"/>
			<point x="245" y="436"/>
			<point x="275" y="436" type="curve"/>
			<point x="280" y="444" type="line"/>
			<point x="280" y="504" type="line"/>
			<point x="275" y="510" type="line"/>
			<point x="16" y="510" type="line"/>
			<point x="10" y="502" type="line"/>
			<point x="10" y="444" type="line"/>
		</contour>
	</outline>
</glyph>
<glyph name="v" format="2">
	<advance width="498"/>
	<unicode hex="0076"/>
	<guideline x="-11" y="542" angle="0"/>
	<outline>
		<contour>
			<point x="197" y="0" type="line"/>
			<point x="320" y="0" type="line"/>
			<point x="328" y="10" type="line"/>
			<point x="380" y="173"/>
			<point x="427" y="337"/>
			<point x="488" y="500" type="curve"/>
			<point x="483" y="510" type="line"/>
			<point x="400" y="510" type="line"/>
			<point x="393" y="502" type="line"/>
			<point x="353" y="344"/>
			<point x="307" y="200"/>
			<point x="250" y="34" type="curve"/>
			<point x="285" y="34" type="line"/>
			<point x="217" y="202"/>
			<point x="149" y="392"/>
			<point x="116" y="500" type="curve"/>
			<point x="110" y="510" type="line"/>
			<point x="14" y="510" type="line"/>
			<point x="10" y="500" type="line"/>
			<point x="63" y="377"/>
			<point x="135" y="174"/>
			<point x="189" y="10" type="curve"/>
		</contour>
	</outline>
</glyph>
<glyph name="z" format="2">
	<advance width="433"/>
	<unicode hex="007A"/>
	<anchor x="208" y="255" name="center"/>
	<anchor x="208" y="4" name="bottom"/>
	<anchor x="208" y="510" name="top"/>
	<outline>
		<contour>
			<point x="30" y="0" type="line"/>
			<point x="71" y="2"/>
			<point x="137" y="4"/>
			<point x="213" y="4" type="curve" smooth="yes"/>
			<point x="254" y="4"/>
			<point x="395" y="2"/>
			<point x="408" y="0" type="curve"/>
			<point x="413" y="10" type="line"/>
			<point x="413" y="71" type="line"/>
			<point x="408" y="80" type="line"/>
			<point x="310" y="74"/>
			<point x="248" y="72"/>
			<point x="107" y="72" type="curve"/>
			<point x="124" y="50" type="line"/>
			<point x="188" y="154"/>
			<point x="327" y="345"/>
			<point x="409" y="472" type="curve"/>
			<point x="410" y="479" type="line"/>
			<point x="405" y="506" type="line"/>
			<point x="401" y="510" type="line"/>
			<point x="359" y="508"/>
			<point x="302" y="506"/>
			<point x="230" y="506" type="curve" smooth="yes"/>
			<point x="185" y="506"/>
			<point x="66" y="508"/>
			<point x="51" y="510" type="curve"/>
			<point x="46" y="500" type="line"/>
			<point x="46" y="439" type="line"/>
			<point x="51" y="430" type="line"/>
			<point x="146" y="437"/>
			<point x="184" y="438"/>
			<point x="312" y="438" type="curve"/>
			<point x="311" y="478" type="line"/>
			<point x="249" y="373"/>
			<point x="128" y="197"/>
			<point x="21" y="44" type="curve"/>
			<point x="20" y="35" type="line"/>
			<point x="24" y="4" type="line"/>
		</contour>
	</outline>
</glyph>
<glyph name="asciitilde" format="2">
	<advance width="497"/>
	<unicode hex="007E"/>
	<outline>
		<contour>
			<point x="330" y="204" type="curve"/>
			<point x="256" y="204"/>
			<point x="209" y="272"/>
			<point x="158" y="272" type="curve"/>
			<point x="111" y="272"/>
			<point x="85" y="241"/>
			<point x="65" y="204" type="curve"/>
			<point x="30" y="225" type="line"/>
			<point x="50" y="308"/>
			<point x="116" y="351"/>
			<point x="167" y="351" type="curve" smooth="yes"/>
			<point x="236" y="351"/>
			<point x="292" y="283"/>
			<point x="340" y="283" type="curve"/>
			<point x="384" y="283"/>
			<point x="412" y="314"/>
			<point x="432" y="351" type="curve"/>
			<point x="467" y="330" type="line"/>
			<point x="447" y="247"/>
			<point x="381" y="204"/>
		</contour>
	</outline>
</glyph>
<glyph name="brokenbar" format="2">
	<advance width="257"/>
	<unicode hex="00A6"/>
	<outline>
		<contour>
			<point x="87" y="548" type="curve" smooth="yes"/>
			<point x="87" y="491"/>
			<point x="83" y="412"/>
			<point x="80" y="339" type="curve"/>
			<point x="88" y="330" type="line"/>
			<point x="169" y="330" type="line"/>
			<point x="177" y="339" type="line"/>
			<point x="174" y="411"/>
			<point x="170" y="493"/>
			<point x="170" y="550" type="curve" smooth="yes"/>
			<point x="170" y="607"/>
			<point x="174" y="679"/>
			<point x="177" y="771" type="curve"/>
			<point x="169" y="780" type="line"/>
			<point x="88" y="780" type="line"/>
			<point x="80" y="771" type="line"/>
			<point x="83" y="678"/>
			<point x="87" y="605"/>
		</contour>
		<contour>
			<point x="87" y="8" type="curve" smooth="yes"/>
			<point x="87" y="-49"/>
			<point x="83" y="-138"/>
			<point x="80" y="-211" type="curve"/>
			<point x="88" y="-220" type="line"/>
			<point x="169" y="-220" type="line"/>
			<point x="177" y="-211" type="line"/>
			<point x="174" y="-139"/>
			<point x="170" y="-47"/>
			<point x="170" y="10" type="curve" smooth="yes"/>
			<point x="170" y="67"/>
			<point x="174" y="129"/>
			<point x="177" y="221" type="curve"/>
			<point x="169" y="230" type="line"/>
			<point x="88" y="230" type="line"/>
			<point x="80" y="221" type="line"/>
			<point x="83" y="128"/>
			<point x="87" y="65"/>
		</contour>
	</outline>
</glyph>
<glyph name="section" format="2">
	<advance width="522"/>
	<unicode hex="00A7"/>
	<anchor x="276" y="700" name="top"/>
	<outline>
		<contour>
			<point x="283" y="117" type="line"/>
			<point x="364.32231" y="117"/>
			<point x="403" y="174"/>
			<point x="403" y="236" type="curve"/>
			<point x="403" y="373"/>
			<point x="78" y="340"/>
			<point x="78" y="551" type="curve"/>
			<point x="78" y="647"/>
			<point x="151" y="710"/>
			<point x="264" y="710" type="curve"/>
			<point x="328" y="710"/>
			<point x="384" y="701"/>
			<point x="453" y="683" type="curve"/>
			<point x="458" y="676" type="line"/>
			<point x="439" y="592" type="line"/>
			<point x="433" y="588" type="line"/>
			<point x="390" y="603"/>
			<point x="305" y="630"/>
			<point x="258" y="630" type="curve"/>
			<point x="191" y="630"/>
			<point x="165" y="592"/>
			<point x="165" y="547" type="curve" smooth="yes"/>
			<point x="165" y="435"/>
			<point x="491" y="431"/>
			<point x="491" y="247" type="curve"/>
			<point x="491" y="141"/>
			<point x="412" y="80"/>
			<point x="344" y="80" type="curve"/>
		</contour>
		<contour>
			<point x="273" y="362" type="line"/>
			<point x="168.07097" y="362"/>
			<point x="121" y="314"/>
			<point x="121" y="242" type="curve" smooth="yes"/>
			<point x="121" y="116"/>
			<point x="443" y="147"/>
			<point x="443" y="-44" type="curve"/>
			<point x="443" y="-144.13793"/>
			<point x="360" y="-220"/>
			<point x="258" y="-220" type="curve"/>
			<point x="192" y="-220"/>
			<point x="140" y="-212"/>
			<point x="69" y="-200" type="curve"/>
			<point x="65" y="-193" type="line"/>
			<point x="83" y="-109" type="line"/>
			<point x="90" y="-106" type="line"/>
			<point x="133.23916" y="-119.0723"/>
			<point x="210" y="-139"/>
			<point x="273" y="-139" type="curve"/>
			<point x="324" y="-139"/>
			<point x="357" y="-107.20513"/>
			<point x="357" y="-59" type="curve" smooth="yes"/>
			<point x="357" y="58.80528"/>
			<point x="33" y="34"/>
			<point x="33" y="236" type="curve" smooth="yes"/>
			<point x="33" y="320"/>
			<point x="97.90608" y="399"/>
			<point x="211" y="399" type="curve"/>
		</contour>
	</outline>
</glyph>
<glyph name="guillemetleft" format="2">
	<advance width="531"/>
	<unicode hex="00AB"/>
	<outline>
		<contour>
			<point x="30" y="262" type="line"/>
			<point x="86" y="202"/>
			<point x="148" y="147"/>
			<point x="216" y="59" type="curve"/>
			<point x="225" y="60" type="line"/>
			<point x="281" y="110" type="line"/>
			<point x="281" y="117" type="line"/>
			<point x="207" y="188"/>
			<point x="153" y="240"/>
			<point x="101" y="300" type="curve"/>
			<point x="101" y="259" type="line"/>
			<point x="153" y="319"/>
			<point x="207" y="371"/>
			<point x="281" y="442" type="curve"/>
			<point x="281" y="449" type="line"/>
			<point x="225" y="499" type="line"/>
			<point x="216" y="500" type="line"/>
			<point x="148" y="412"/>
			<point x="86" y="357"/>
			<point x="30" y="297" type="curve"/>
		</contour>
		<component base="guilsinglright" xScale="-1" xOffset="531"/>
	</outline>
</glyph>
<glyph name="macron" format="2">
	<advance width="280"/>
	<unicode hex="00AF"/>
	<anchor x="143" y="510" name="_top"/>
	<outline>
		<contour>
			<point x="270" y="604" type="line"/>
			<point x="234" y="606"/>
			<point x="200" y="606"/>
			<point x="140" y="606" type="curve" smooth="yes"/>
			<point x="79" y="606"/>
			<point x="45" y="606"/>
			<point x="7" y="604" type="curve"/>
			<point x="0" y="610" type="line"/>
			<point x="0" y="682" type="line"/>
			<point x="8" y="687" type="line"/>
			<point x="48" y="686"/>
			<point x="81" y="685"/>
			<point x="140" y="685" type="curve" smooth="yes"/>
			<point x="200" y="685"/>
			<point x="232" y="686"/>
			<point x="270" y="687" type="curve"/>
			<point x="280" y="682" type="line"/>
			<point x="280" y="609" type="line"/>
		</contour>
	</outline>
</glyph>
<glyph name="paragraph" format="2">
	<advance width="554"/>
	<unicode hex="00B6"/>
	<outline>
		<contour>
			<point x="216" y="320" type="line"/>
			<point x="216" y="158" type="line" smooth="yes"/>
			<point x="216" y="45"/>
			<point x="162.78964" y="-0.18404"/>
			<point x="102" y="-63" type="curve"/>
			<point x="103" y="-71" type="line"/>
			<point x="140" y="-115" type="line"/>
			<point x="147" y="-118" type="line"/>
			<point x="222" y="-60"/>
			<point x="299" y="-3"/>
			<point x="299" y="177" type="curve" smooth="yes"/>
			<point x="299" y="657" type="line"/>
			<point x="264" y="612" type="line"/>
			<point x="291" y="615"/>
			<point x="315" y="616"/>
			<point x="341" y="616" type="curve" smooth="yes"/>
			<point x="362" y="616"/>
			<point x="382" y="614"/>
			<point x="402" y="613" type="curve"/>
			<point x="379" y="647" type="line"/>
			<point x="382.83323" y="523.05879"/>
			<point x="387" y="431"/>
			<point x="387" y="325" type="curve"/>
			<point x="387" y="206"/>
			<point x="385.1903" y="76.95466"/>
			<point x="380" y="-90" type="curve"/>
			<point x="385" y="-100" type="line"/>
			<point x="478" y="-100" type="line"/>
			<point x="483" y="-90" type="line"/>
			<point x="475.21584" y="82.0299"/>
			<point x="471" y="207"/>
			<point x="471" y="327" type="curve"/>
			<point x="471" y="430"/>
			<point x="474.642" y="524.11203"/>
			<point x="478" y="645" type="curve"/>
			<point x="447" y="615" type="line"/>
			<point x="539" y="625" type="line"/>
			<point x="549" y="630" type="line"/>
			<point x="549" y="687" type="line"/>
			<point x="539" y="692" type="line"/>
			<point x="509" y="694"/>
			<point x="442" y="700"/>
			<point x="241" y="700" type="curve" smooth="yes"/>
			<point x="71" y="700"/>
			<point x="30" y="590"/>
			<point x="30" y="499" type="curve" smooth="yes"/>
			<point x="30" y="408"/>
			<point x="78" y="287"/>
			<point x="257" y="287" type="curve"/>
		</contour>
	</outline>
</glyph>
<glyph name="multiply" format="2">
	<advance width="568"/>
	<unicode hex="00D7"/>
	<outline>
		<contour>
			<point x="259" y="329" type="curve" smooth="yes"/>
			<point x="299" y="288"/>
			<point x="372" y="208"/>
			<point x="422" y="154" type="curve"/>
			<point x="434" y="153" type="line"/>
			<point x="488" y="207" type="line"/>
			<point x="487" y="219" type="line"/>
			<point x="434" y="268"/>
			<point x="351" y="344"/>
			<point x="311" y="384" type="curve" smooth="yes"/>
			<point x="271" y="424"/>
			<point x="209" y="493"/>
			<point x="146" y="560" type="curve"/>
			<point x="134" y="561" type="line"/>
			<point x="80" y="507" type="line"/>
			<point x="81" y="495" type="line"/>
			<point x="149" y="431"/>
			<point x="218" y="369"/>
		</contour>
		<contour>
			<point x="256" y="382" type="curve" smooth="yes"/>
			<point x="216" y="341"/>
			<point x="136" y="268"/>
			<point x="82" y="218" type="curve"/>
			<point x="81" y="206" type="line"/>
			<point x="133" y="154" type="line"/>
			<point x="145" y="155" type="line"/>
			<point x="194" y="208"/>
			<point x="270" y="291"/>
			<point x="310" y="331" type="curve" smooth="yes"/>
			<point x="351" y="372"/>
			<point x="419" y="433"/>
			<point x="486" y="496" type="curve"/>
			<point x="487" y="508" type="line"/>
			<point x="435" y="560" type="line"/>
			<point x="423" y="559" type="line"/>
			<point x="359" y="491"/>
			<point x="297" y="423"/>
		</contour>
	</outline>
</glyph>
<glyph name="Aogonek" format="2">
	<advance width="581"/>
	<unicode hex="0104"/>
	<anchor x="527" y="10" name="_ogonek"/>
	<outline>
		<contour>
			<point x="521" y="11" type="line"/>
			<point x="445" y="-20"/>
			<point x="407" y="-85"/>
			<point x="407" y="-138" type="curve" smooth="yes"/>
			<point x="407" y="-184"/>
			<point x="435" y="-221"/>
			<point x="489" y="-221" type="curve" smooth="yes"/>
			<point x="511" y="-221"/>
			<point x="537" y="-215"/>
			<point x="568" y="-201" type="curve"/>
			<point x="572" y="-194" type="line"/>
			<point x="561" y="-145" type="line"/>
			<point x="555" y="-140" type="line"/>
			<point x="514" y="-145"/>
			<point x="497" y="-127"/>
			<point x="497" y="-101" type="curve" smooth="yes"/>
			<point x="497" y="-71"/>
			<point x="520" y="-31"/>
			<point x="555" y="0" type="curve"/>
		</contour>
		<component base="A" xOffset="-5"/>
	</outline>
</glyph>
<glyph name="aogonek" format="2">
	<advance width="532"/>
	<unicode hex="0105"/>
	<anchor x="478" y="10" name="_ogonek"/>
	<outline>
		<contour>
			<point x="454" y="11" type="line"/>
			<point x="378" y="-20"/>
			<point x="337" y="-75"/>
			<point x="337" y="-128" type="curve" smooth="yes"/>
			<point x="337" y="-174"/>
			<point x="365" y="-211"/>
			<point x="419" y="-211" type="curve" smooth="yes"/>
			<point x="441" y="-211"/>
			<point x="467" y="-205"/>
			<point x="498" y="-191" type="curve"/>
			<point x="485" y="-130" type="line"/>
			<point x="444" y="-135"/>
			<point x="427" y="-117"/>
			<point x="427" y="-91" type="curve" smooth="yes"/>
			<point x="427" y="-61"/>
			<point x="453" y="-31"/>
			<point x="488" y="0" type="curve"/>
		</contour>
		<component base="a"/>
	</outline>
</glyph>
<glyph name="idotless" format="2">
	<advance width="280"/>
	<unicode hex="0131"/>
	<anchor x="193" y="10" name="ogonek"/>
	<anchor x="140" y="0" name="bottom"/>
	<anchor x="130" y="510" name="top"/>
	<outline>
		<contour>
			<point x="110" y="0" type="line"/>
			<point x="205" y="0" type="line"/>
			<point x="210" y="10" type="line"/>
			<point x="201" y="86"/>
			<point x="200" y="195"/>
			<point x="200" y="275" type="curve" smooth="yes"/>
			<point x="200" y="458" type="line" smooth="yes"/>
			<point x="200" y="499"/>
			<point x="186" y="520"/>
			<point x="144" y="520" type="curve" smooth="yes"/>
			<point x="115" y="520"/>
			<point x="66" y="510"/>
			<point x="40" y="504" type="curve"/>
			<point x="47" y="438" type="line"/>
			<point x="124" y="443" type="line"/>
			<point x="105" y="472" type="line"/>
			<point x="112" y="423"/>
			<point x="115" y="335"/>
			<point x="115" y="275" type="curve" smooth="yes"/>
			<point x="115" y="202"/>
			<point x="113" y="79"/>
			<point x="105" y="10" type="curve"/>
		</contour>
	</outline>
</glyph>
<glyph name="Scedilla" format="2">
	<advance width="515"/>
	<unicode hex="015E"/>
	<outline>
		<contour>
			<point x="157" y="-218"/>
			<point x="201" y="-223"/>
			<point x="232" y="-223" type="curve" smooth="yes"/>
			<point x="336" y="-223"/>
			<point x="388" y="-193"/>
			<point x="388" y="-132" type="curve" smooth="yes"/>
			<point x="388" y="-82"/>
			<point x="336" y="-55"/>
			<point x="232" y="-49" type="curve"/>
			<point x="266" y="-76" type="line"/>
			<point x="280" y="0" type="line"/>
			<point x="220" y="0" type="line"/>
			<point x="202" y="-89" type="line"/>
			<point x="205" y="-91" type="line"/>
			<point x="280" y="-98"/>
			<point x="313" y="-111"/>
			<point x="313" y="-132" type="curve" smooth="yes"/>
			<point x="313" y="-153"/>
			<point x="290" y="-162"/>
			<point x="238" y="-162" type="curve" smooth="yes"/>
			<point x="213" y="-162"/>
			<point x="174" y="-157"/>
			<point x="142" y="-142" type="curve"/>
			<point x="139" y="-142" type="line"/>
			<point x="117" y="-200" type="line"/>
			<point x="119" y="-204" type="line"/>
		</contour>
		<component base="S" xOffset="-5"/>
	</outline>
</glyph>
<glyph name="uogonek" format="2">
	<advance width="565"/>
	<unicode hex="0173"/>
	<anchor x="482" y="9" name="_ogonek"/>
	<outline>
		<contour>
			<point x="487" y="12" type="line"/>
			<point x="411" y="-19"/>
			<point x="374" y="-76"/>
			<point x="374" y="-129" type="curve" smooth="yes"/>
			<point x="374" y="-175"/>
			<point x="402" y="-212"/>
			<point x="456" y="-212" type="curve" smooth="yes"/>
			<point x="478" y="-212"/>
			<point x="504" y="-206"/>
			<point x="535" y="-192" type="curve"/>
			<point x="522" y="-131" type="line"/>
			<point x="481" y="-136"/>
			<point x="464" y="-118"/>
			<point x="464" y="-92" type="curve" smooth="yes"/>
			<point x="464" y="-62"/>
			<point x="486" y="-30"/>
			<point x="521" y="1" type="curve"/>
		</contour>
		<component base="u"/>
	</outline>
</glyph>
<glyph name="jdotless" format="2">
	<advance width="276"/>
	<unicode hex="0237"/>
	<anchor x="138" y="510" name="top"/>
	<anchor x="138" y="-220" name="bottom"/>
	<outline>
		<contour>
			<point x="43" y="-226" type="curve" smooth="yes"/>
			<point x="119" y="-226"/>
			<point x="202" y="-187"/>
			<point x="202" y="-59" type="curve" smooth="yes"/>
			<point x="202" y="245" type="line" smooth="yes"/>
			<point x="202" y="308"/>
			<point x="205" y="394"/>
			<point x="206" y="457" type="curve" smooth="yes"/>
			<point x="206" y="498"/>
			<point x="192" y="519"/>
			<point x="150" y="519" type="curve" smooth="yes"/>
			<point x="121" y="519"/>
			<point x="72" y="509"/>
			<point x="46" y="503" type="curve"/>
			<point x="53" y="437" type="line"/>
			<point x="157" y="444" type="line"/>
			<point x="111" y="462" type="line"/>
			<point x="113" y="416"/>
			<point x="117" y="306"/>
			<point x="117" y="245" type="curve" smooth="yes"/>
			<point x="117" y="-41" type="line" smooth="yes"/>
			<point x="117" y="-133"/>
			<point x="76" y="-159"/>
			<point x="31" y="-159" type="curve" smooth="yes"/>
			<point x="23" y="-159"/>
			<point x="15" y="-158"/>
			<point x="6" y="-157" type="curve"/>
			<point x="1" y="-159" type="line"/>
			<point x="-11" y="-216" type="line"/>
			<point x="-8" y="-220" type="line"/>
			<point x="8" y="-224"/>
			<point x="25" y="-226"/>
		</contour>
	</outline>
</glyph>
<glyph name="acutecomb" format="2">
	<advance width="236"/>
	<unicode hex="0301"/>
	<anchor x="88" y="510" name="_top"/>
	<outline>
		<contour>
			<point x="40" y="569" type="line"/>
			<point x="47" y="571" type="line"/>
			<point x="236" y="742" type="line"/>
			<point x="234" y="752" type="line"/>
			<point x="169" y="813" type="line"/>
			<point x="159" y="813" type="line"/>
			<point x="0" y="613" type="line"/>
			<point x="1" y="605" type="line"/>
		</contour>
	</outline>
</glyph>
<glyph name="tildecomb" format="2">
	<advance width="366"/>
	<unicode hex="0303"/>
	<anchor x="186" y="510" name="_top"/>
	<outline>
		<contour>
			<point x="260" y="579" type="curve"/>
			<point x="306" y="579"/>
			<point x="353.63194" y="625.16533"/>
			<point x="344" y="708" type="curve"/>
			<point x="304" y="708" type="line"/>
			<point x="299" y="679"/>
			<point x="281" y="659"/>
			<point x="252" y="659" type="curve"/>
			<point x="218" y="659"/>
			<point x="178" y="710"/>
			<point x="116" y="710" type="curve"/>
			<point x="71" y="710"/>
			<point x="20.33211" y="663.82647"/>
			<point x="29" y="581" type="curve"/>
			<point x="69" y="581" type="line"/>
			<point x="79" y="610"/>
			<point x="87" y="630"/>
			<point x="119" y="630" type="curve" smooth="yes"/>
			<point x="161" y="630"/>
			<point x="195" y="579"/>
		</contour>
	</outline>
</glyph>
<glyph name="dieresiscomb" format="2">
	<advance width="409"/>
	<unicode hex="0308"/>
	<anchor x="204" y="510" name="_top"/>
	<outline>
		<contour>
			<point x="296" y="592" type="curve" smooth="yes"/>
			<point x="322" y="592"/>
			<point x="369" y="600"/>
			<point x="369" y="648" type="curve" smooth="yes"/>
			<point x="369" y="677"/>
			<point x="358" y="725"/>
			<point x="312" y="725" type="curve" smooth="yes"/>
			<point x="287" y="725"/>
			<point x="236" y="716"/>
			<point x="236" y="669" type="curve" smooth="yes"/>
			<point x="236" y="637"/>
			<point x="249" y="592"/>
		</contour>
		<contour>
			<point x="100" y="592" type="curve" smooth="yes"/>
			<point x="125" y="592"/>
			<point x="173" y="600"/>
			<point x="173" y="648" type="curve" smooth="yes"/>
			<point x="173" y="677"/>
			<point x="161" y="725"/>
			<point x="115" y="725" type="curve" smooth="yes"/>
			<point x="90" y="725"/>
			<point x="40" y="716"/>
			<point x="40" y="669" type="curve" smooth="yes"/>
			<point x="40" y="637"/>
			<point x="52" y="592"/>
		</contour>
	</outline>
</glyph>
<glyph name="ringcomb" format="2">
	<advance width="248"/>
	<unicode hex="030A"/>
	<anchor x="124" y="510" name="_top"/>
	<outline>
		<contour>
			<point x="238" y="664" type="curve" smooth="yes"/>
			<point x="238" y="732"/>
			<point x="194" y="774"/>
			<point x="124" y="774" type="curve" smooth="yes"/>
			<point x="54" y="774"/>
			<point x="10" y="732"/>
			<point x="10" y="664" type="curve" smooth="yes"/>
			<point x="10" y="596"/>
			<point x="54" y="554"/>
			<point x="124" y="554" type="curve" smooth="yes"/>
			<point x="194" y="554"/>
			<point x="238" y="596"/>
		</contour>
		<contour>
			<point x="176" y="664" type="curve" smooth="yes"/>
			<point x="176" y="628"/>
			<point x="160" y="612"/>
			<point x="124" y="612" type="curve" smooth="yes"/>
			<point x="89" y="612"/>
			<point x="74" y="628"/>
			<point x="74" y="664" type="curve" smooth="yes"/>
			<point x="74" y="700"/>
			<point x="89" y="716"/>
			<point x="124" y="716" type="curve" smooth="yes"/>
			<point x="160" y="716"/>
			<point x="176" y="700"/>
		</contour>
	</outline>
</glyph>
<glyph name="endash" format="2">
	<advance width="497"/>
	<unicode hex="2013"/>
	<outline>
		<contour>
			<point x="437" y="273" type="line"/>
			<point x="376" y="275"/>
			<point x="311" y="275"/>
			<point x="247" y="275" type="curve" smooth="yes"/>
			<point x="183" y="275"/>
			<point x="119" y="275"/>
			<point x="57" y="273" type="curve"/>
			<point x="50" y="279" type="line"/>
			<point x="50" y="346" type="line"/>
			<point x="58" y="351" type="line"/>
			<point x="120" y="350"/>
			<point x="184" y="349"/>
			<point x="248" y="349" type="curve" smooth="yes"/>
			<point x="312" y="349"/>
			<point x="376" y="350"/>
			<point x="437" y="351" type="curve"/>
			<point x="447" y="346" type="line"/>
			<point x="447" y="278" type="line"/>
		</contour>
	</outline>
</glyph>
<glyph name="emdash" format="2">
	<advance width="767"/>
	<unicode hex="2014"/>
	<outline>
		<contour>
			<point x="707" y="271" type="line"/>
			<point x="646" y="273"/>
			<point x="514" y="273"/>
			<point x="382" y="273" type="curve" smooth="yes"/>
			<point x="250" y="273"/>
			<point x="119" y="273"/>
			<point x="57" y="271" type="curve"/>
			<point x="50" y="277" type="line"/>
			<point x="50" y="348" type="line"/>
			<point x="58" y="353" type="line"/>
			<point x="120" y="352"/>
			<point x="251" y="351"/>
			<point x="383" y="351" type="curve" smooth="yes"/>
			<point x="514" y="351"/>
			<point x="646" y="352"/>
			<point x="707" y="353" type="curve"/>
			<point x="717" y="348" type="line"/>
			<point x="717" y="276" type="line"/>
		</contour>
	</outline>
</glyph>
<glyph name="bullet" format="2">
	<advance width="403"/>
	<unicode hex="2022"/>
	<outline>
		<contour>
			<point x="323" y="300" type="curve" smooth="yes"/>
			<point x="323" y="242"/>
			<point x="250" y="175"/>
			<point x="202" y="175" type="curve" smooth="yes"/>
			<point x="155" y="175"/>
			<point x="80" y="241"/>
			<point x="80" y="299" type="curve" smooth="yes"/>
			<point x="80" y="357"/>
			<point x="155" y="423"/>
			<point x="202" y="423" type="curve" smooth="yes"/>
			<point x="250" y="423"/>
			<point x="323" y="358"/>
		</contour>
	</outline>
</glyph>
<glyph name="guilsinglright" format="2">
	<advance width="311"/>
	<unicode hex="203A"/>
	<outline>
		<contour>
			<point x="281" y="262" type="curve"/>
			<point x="281" y="297" type="line"/>
			<point x="225" y="357"/>
			<point x="163" y="412"/>
			<point x="95" y="500" type="curve"/>
			<point x="86" y="499" type="line"/>
			<point x="30" y="449" type="line"/>
			<point x="30" y="442" type="line"/>
			<point x="104" y="371"/>
			<point x="158" y="319"/>
			<point x="210" y="259" type="curve"/>
			<point x="210" y="300" type="line"/>
			<point x="158" y="240"/>
			<point x="104" y="188"/>
			<point x="30" y="117" type="curve"/>
			<point x="30" y="110" type="line"/>
			<point x="86" y="60" type="line"/>
			<point x="95" y="59" type="line"/>
			<point x="163" y="147"/>
			<point x="225" y="202"/>
		</contour>
	</outline>
</glyph>
<glyph name="trademark" format="2">
	<advance width="595"/>
	<unicode hex="2122"/>
	<outline>
		<contour>
			<point x="127" y="428" type="line"/>
			<point x="171" y="428" type="line"/>
			<point x="173" y="431" type="line"/>
			<point x="171" y="473"/>
			<point x="171" y="515"/>
			<point x="171" y="564" type="curve" smooth="yes"/>
			<point x="171" y="626.23729"/>
			<point x="171" y="667.42373"/>
			<point x="171" y="672" type="curve"/>
			<point x="127" y="672" type="line"/>
			<point x="127" y="667.42373"/>
			<point x="127" y="627.15254"/>
			<point x="127" y="564" type="curve" smooth="yes"/>
			<point x="127" y="514"/>
			<point x="127" y="473"/>
			<point x="124" y="431" type="curve"/>
		</contour>
		<contour>
			<point x="54" y="653" type="line"/>
			<point x="85" y="656"/>
			<point x="100" y="657"/>
			<point x="148" y="657" type="curve" smooth="yes"/>
			<point x="197" y="657"/>
			<point x="210" y="656"/>
			<point x="241" y="653" type="curve"/>
			<point x="245" y="655" type="line"/>
			<point x="245" y="698" type="line"/>
			<point x="241" y="700" type="line"/>
			<point x="218" y="699"/>
			<point x="172" y="698"/>
			<point x="148" y="698" type="curve" smooth="yes"/>
			<point x="124" y="698"/>
			<point x="78" y="699"/>
			<point x="54" y="700" type="curve"/>
			<point x="50" y="698" type="line"/>
			<point x="50" y="655" type="line"/>
		</contour>
		<contour>
			<point x="241" y="429" type="line"/>
			<point x="281" y="429" type="line"/>
			<point x="283" y="433" type="line"/>
			<point x="288.76781" y="511.82667"/>
			<point x="302.49574" y="591.5083"/>
			<point x="315" y="680" type="curve"/>
			<point x="294" y="680" type="line"/>
			<point x="313.0232" y="632.44199"/>
			<point x="352.07126" y="497.66916"/>
			<point x="366" y="433" type="curve"/>
			<point x="368" y="429" type="line"/>
			<point x="415" y="429" type="line"/>
			<point x="418" y="433" type="line"/>
			<point x="430.92346" y="492.64672"/>
			<point x="466.07188" y="618.3428"/>
			<point x="479" y="680" type="curve"/>
			<point x="465" y="680" type="line"/>
			<point x="474" y="616"/>
			<point x="487" y="525"/>
			<point x="498" y="433" type="curve"/>
			<point x="501" y="429" type="line"/>
			<point x="543" y="429" type="line"/>
			<point x="545" y="433" type="line"/>
			<point x="534.04035" y="497.76156"/>
			<point x="510.98124" y="630.25143"/>
			<point x="506" y="697" type="curve"/>
			<point x="500" y="700" type="line"/>
			<point x="445" y="700" type="line"/>
			<point x="443" y="697" type="line"/>
			<point x="429.05604" y="619.31223"/>
			<point x="404.7856" y="535.09726"/>
			<point x="386" y="456" type="curve"/>
			<point x="405" y="456" type="line"/>
			<point x="382.29701" y="536.94111"/>
			<point x="356.93279" y="617.31627"/>
			<point x="340" y="697" type="curve"/>
			<point x="338" y="700" type="line"/>
			<point x="281" y="700" type="line"/>
			<point x="278" y="697" type="line"/>
			<point x="272.02249" y="625.26982"/>
			<point x="252.45862" y="506.0611"/>
			<point x="239" y="433" type="curve"/>
		</contour>
	</outline>
</glyph>
<glyph name="upArrow" format="2">
	<advance width="613"/>
	<unicode hex="2191"/>
	<outline>
		<contour>
			<point x="344" y="617" type="curve"/>
			<point x="270" y="617" type="line"/>
			<point x="270" y="537"/>
			<point x="265" y="134"/>
			<point x="262" y="9" type="curve"/>
			<point x="270" y="0" type="line"/>
			<point x="344" y="0" type="line"/>
			<point x="352" y="9" type="line"/>
			<point x="348" y="135"/>
			<point x="344" y="537"/>
		</contour>
		<contour>
			<point x="322" y="624" type="curve"/>
			<point x="291" y="624" type="line"/>
			<point x="357" y="539"/>
			<point x="440" y="436"/>
			<point x="515" y="340" type="curve"/>
			<point x="527" y="339" type="line"/>
			<point x="583" y="390" type="line"/>
			<point x="582" y="402" type="line"/>
			<point x="493" y="493"/>
			<point x="392" y="598"/>
			<point x="322" y="675" type="curve"/>
			<point x="291" y="675" type="line"/>
			<point x="221" y="598"/>
			<point x="120" y="493"/>
			<point x="31" y="402" type="curve"/>
			<point x="30" y="390" type="line"/>
			<point x="86" y="339" type="line"/>
			<point x="98" y="340" type="line"/>
			<point x="173" y="436"/>
			<point x="256" y="539"/>
		</contour>
	</outline>
</glyph>
<glyph name="rightArrow" format="2">
	<advance width="614"/>
	<unicode hex="2192"/>
	<outline>
		<contour>
			<point x="506" y="320" type="curve"/>
			<point x="506" y="394" type="line"/>
			<point x="447" y="394"/>
			<point x="151" y="399"/>
			<point x="59" y="402" type="curve"/>
			<point x="50" y="394" type="line"/>
			<point x="50" y="320" type="line"/>
			<point x="59" y="312" type="line"/>
			<point x="152" y="315"/>
			<point x="447" y="320"/>
		</contour>
		<contour>
			<point x="513" y="343" type="curve"/>
			<point x="513" y="376" type="line"/>
			<point x="450" y="295"/>
			<point x="382" y="214"/>
			<point x="300" y="120" type="curve"/>
			<point x="299" y="108" type="line"/>
			<point x="359" y="63" type="line"/>
			<point x="371" y="64" type="line"/>
			<point x="437" y="168"/>
			<point x="511" y="276"/>
			<point x="564" y="345" type="curve"/>
			<point x="564" y="374" type="line"/>
			<point x="511" y="443"/>
			<point x="437" y="551"/>
			<point x="371" y="655" type="curve"/>
			<point x="359" y="656" type="line"/>
			<point x="299" y="611" type="line"/>
			<point x="300" y="599" type="line"/>
			<point x="382" y="505"/>
			<point x="450" y="424"/>
		</contour>
	</outline>
</glyph>
<glyph name="leftRightArrow" format="2">
	<advance width="644"/>
	<unicode hex="2194"/>
	<outline>
		<contour>
			<point x="563" y="348" type="curve"/>
			<point x="563" y="365" type="line"/>
			<point x="515" y="316"/>
			<point x="454" y="267"/>
			<point x="396" y="218" type="curve"/>
			<point x="395" y="206" type="line"/>
			<point x="447" y="159" type="line"/>
			<point x="459" y="160" type="line"/>
			<point x="507" y="217"/>
			<point x="575" y="292"/>
			<point x="614" y="341" type="curve"/>
			<point x="614" y="374" type="line"/>
			<point x="575" y="423"/>
			<point x="507" y="498"/>
			<point x="459" y="555" type="curve"/>
			<point x="447" y="556" type="line"/>
			<point x="395" y="509" type="line"/>
			<point x="396" y="497" type="line"/>
			<point x="454" y="448"/>
			<point x="514" y="398"/>
		</contour>
		<contour>
			<point x="81" y="348" type="line"/>
			<point x="130" y="398"/>
			<point x="190" y="448"/>
			<point x="248" y="497" type="curve"/>
			<point x="249" y="509" type="line"/>
			<point x="197" y="556" type="line"/>
			<point x="185" y="555" type="line"/>
			<point x="137" y="498"/>
			<point x="69" y="423"/>
			<point x="30" y="374" type="curve"/>
			<point x="30" y="341" type="line"/>
			<point x="69" y="292"/>
			<point x="137" y="217"/>
			<point x="185" y="160" type="curve"/>
			<point x="197" y="159" type="line"/>
			<point x="249" y="206" type="line"/>
			<point x="248" y="218" type="line"/>
			<point x="190" y="267"/>
			<point x="129" y="316"/>
			<point x="81" y="365" type="curve"/>
		</contour>
		<contour>
			<point x="315" y="386" type="curve" smooth="yes"/>
			<point x="268" y="386"/>
			<point x="118" y="391"/>
			<point x="88" y="391" type="curve"/>
			<point x="88" y="323" type="line"/>
			<point x="118" y="323"/>
			<point x="268" y="328"/>
			<point x="315" y="328" type="curve" smooth="yes"/>
			<point x="365.01777" y="329.00036"/>
			<point x="524.0694" y="323"/>
			<point x="556" y="323" type="curve"/>
			<point x="556" y="391" type="line"/>
			<point x="524.0694" y="391"/>
			<point x="364.01813" y="384.99963"/>
		</contour>
	</outline>
</glyph>
<glyph name="upDownArrow" format="2">
	<advance width="457"/>
	<unicode hex="2195"/>
	<outline>
		<contour>
			<point x="238" y="653" type="curve"/>
			<point x="221" y="653" type="line"/>
			<point x="270" y="605"/>
			<point x="319" y="544"/>
			<point x="368" y="486" type="curve"/>
			<point x="380" y="485" type="line"/>
			<point x="427" y="537" type="line"/>
			<point x="426" y="549" type="line"/>
			<point x="369" y="597"/>
			<point x="294" y="665"/>
			<point x="245" y="704" type="curve"/>
			<point x="212" y="704" type="line"/>
			<point x="163" y="665"/>
			<point x="88" y="597"/>
			<point x="31" y="549" type="curve"/>
			<point x="30" y="537" type="line"/>
			<point x="77" y="485" type="line"/>
			<point x="89" y="486" type="line"/>
			<point x="138" y="544"/>
			<point x="188" y="604"/>
		</contour>
		<contour>
			<point x="238" y="51" type="line"/>
			<point x="188" y="100"/>
			<point x="138" y="160"/>
			<point x="89" y="218" type="curve"/>
			<point x="77" y="219" type="line"/>
			<point x="30" y="167" type="line"/>
			<point x="31" y="155" type="line"/>
			<point x="88" y="107"/>
			<point x="163" y="39"/>
			<point x="212" y="0" type="curve"/>
			<point x="245" y="0" type="line"/>
			<point x="294" y="39"/>
			<point x="369" y="107"/>
			<point x="426" y="155" type="curve"/>
			<point x="427" y="167" type="line"/>
			<point x="380" y="219" type="line"/>
			<point x="368" y="218" type="line"/>
			<point x="319" y="160"/>
			<point x="270" y="99"/>
			<point x="221" y="51" type="curve"/>
		</contour>
		<contour>
			<point x="200" y="345" type="curve" smooth="yes"/>
			<point x="199" y="229"/>
			<point x="195" y="96"/>
			<point x="195" y="58" type="curve"/>
			<point x="263" y="58" type="line"/>
			<point x="263" y="96"/>
			<point x="258" y="230"/>
			<point x="258" y="345" type="curve" smooth="yes"/>
			<point x="258" y="460"/>
			<point x="263" y="606"/>
			<point x="263" y="646" type="curve"/>
			<point x="195" y="646" type="line"/>
			<point x="195" y="606"/>
			<point x="201" y="461"/>
		</contour>
	</outline>
</glyph>
<glyph name="minus" format="2">
	<advance width="620"/>
	<unicode hex="2212"/>
	<outline>
		<contour>
			<point x="312" y="320" type="curve" smooth="yes"/>
			<point x="371" y="320"/>
			<point x="458" y="315"/>
			<point x="531" y="312" type="curve"/>
			<point x="540" y="320" type="line"/>
			<point x="540" y="394" type="line"/>
			<point x="531" y="402" type="line"/>
			<point x="459" y="399"/>
			<point x="369" y="394"/>
			<point x="310" y="394" type="curve" smooth="yes"/>
			<point x="251" y="394"/>
			<point x="181" y="399"/>
			<point x="89" y="402" type="curve"/>
			<point x="80" y="394" type="line"/>
			<point x="80" y="320" type="line"/>
			<point x="89" y="312" type="line"/>
			<point x="182" y="315"/>
			<point x="253" y="320"/>
		</contour>
	</outline>
</glyph>
<glyph name="saltillo" format="2">
	<advance width="199"/>
	<unicode hex="A78C"/>
	<outline>
		<contour>
			<point x="66" y="359" type="curve"/>
			<point x="76" y="352" type="line"/>
			<point x="123" y="352" type="line"/>
			<point x="132" y="359" type="line"/>
			<point x="131" y="499"/>
			<point x="139" y="636"/>
			<point x="154" y="770" type="curve"/>
			<point x="149" y="780" type="line"/>
			<point x="50" y="780" type="line"/>
			<point x="45" y="770" type="line"/>
			<point x="44" y="636"/>
			<point x="51" y="499"/>
		</contour>
	</outline>
</glyph>
<glyph name="J.alt" format="2">
	<advance width="348"/>
	<outline>
		<contour>
			<point x="4" y="-128" type="curve"/>
			<point x="1" y="-130" type="line"/>
			<point x="38" y="-191" type="line"/>
			<point x="41" y="-194" type="line"/>
			<point x="176" y="-135"/>
			<point x="233" y="-49"/>
			<point x="232" y="48" type="curve" smooth="yes"/>
			<point x="229" y="310" type="line" smooth="yes"/>
			<point x="227.63745" y="428.9964"/>
			<point x="231" y="546"/>
			<point x="236" y="660" type="curve"/>
			<point x="226" y="670" type="line"/>
			<point x="147" y="670" type="line"/>
			<point x="137" y="660" type="line"/>
			<point x="141" y="575"/>
			<point x="144" y="487"/>
			<point x="143" y="398" type="curve" smooth="yes"/>
			<point x="141" y="59" type="line" smooth="yes"/>
			<point x="140" y="-26"/>
			<point x="68" y="-81"/>
		</contour>
		<contour>
			<point x="31" y="617" type="line"/>
			<point x="68.73298" y="619.03962"/>
			<point x="105.45033" y="622"/>
			<point x="185" y="622" type="curve" smooth="yes"/>
			<point x="262" y="622"/>
			<point x="295" y="617"/>
			<point x="332" y="617" type="curve"/>
			<point x="342" y="622" type="line"/>
			<point x="342" y="695" type="line"/>
			<point x="332" y="700" type="line"/>
			<point x="296" y="699"/>
			<point x="239" y="697"/>
			<point x="184" y="697" type="curve" smooth="yes"/>
			<point x="127.9" y="697"/>
			<point x="70.77949" y="698.98001"/>
			<point x="31" y="700" type="curve"/>
			<point x="21" y="695" type="line"/>
			<point x="21" y="622" type="line"/>
		</contour>
	</outline>
</glyph>
<glyph name="Y.alt" format="2">
	<advance width="650"/>
	<outline>
		<contour>
			<point x="484" y="187.96629"/>
			<point x="430" y="110"/>
			<point x="334" y="110" type="curve" smooth="yes"/>
			<point x="230" y="110"/>
			<point x="179" y="171"/>
			<point x="179" y="296" type="curve" smooth="yes"/>
			<point x="179" y="461"/>
			<point x="181" y="570"/>
			<point x="186" y="691" type="curve"/>
			<point x="177" y="700" type="line"/>
			<point x="79" y="700" type="line"/>
			<point x="70" y="690" type="line"/>
			<point x="75" y="571"/>
			<point x="80" y="453"/>
			<point x="80" y="306" type="curve" smooth="yes"/>
			<point x="80" y="106"/>
			<point x="167" y="20"/>
			<point x="307" y="20" type="curve" smooth="yes"/>
			<point x="421" y="20"/>
			<point x="481" y="95"/>
			<point x="509" y="199" type="curve"/>
			<point x="445" y="128" type="line"/>
			<point x="520" y="128" type="line"/>
			<point x="486" y="151" type="line"/>
			<point x="486" y="-29"/>
			<point x="430" y="-128"/>
			<point x="312" y="-128" type="curve" smooth="yes"/>
			<point x="233" y="-128"/>
			<point x="181" y="-103"/>
			<point x="102" y="-64" type="curve"/>
			<point x="94" y="-64" type="line"/>
			<point x="54" y="-143" type="line"/>
			<point x="58" y="-150" type="line"/>
			<point x="133" y="-189"/>
			<point x="207" y="-220"/>
			<point x="311" y="-220" type="curve" smooth="yes"/>
			<point x="505" y="-220"/>
			<point x="583" y="-85"/>
			<point x="583" y="174" type="curve" smooth="yes"/>
			<point x="583" y="276" type="line" smooth="yes"/>
			<point x="583" y="433"/>
			<point x="587" y="561"/>
			<point x="593" y="690" type="curve"/>
			<point x="584" y="700" type="line"/>
			<point x="486" y="700" type="line"/>
			<point x="477" y="691" type="line"/>
			<point x="481.12718" y="590.91599"/>
			<point x="484" y="489.78981"/>
			<point x="484" y="367" type="curve"/>
		</contour>
	</outline>
</glyph>
<glyph name=".notdef" format="2">
	<advance width="504"/>
	<outline>
		<contour>
			<point x="252" y="-49" type="curve"/>
			<point x="221" y="-49"/>
			<point x="200" y="-35"/>
			<point x="200" y="-8" type="curve" smooth="yes"/>
			<point x="200" y="15"/>
			<point x="220" y="40"/>
			<point x="220" y="62" type="curve"/>
			<point x="220" y="81"/>
			<point x="204" y="99"/>
			<point x="171" y="99" type="curve" smooth="yes"/>
			<point x="138" y="99"/>
			<point x="111" y="92"/>
			<point x="79" y="84" type="curve"/>
			<point x="69" y="113"/>
			<point x="60" y="149"/>
			<point x="60" y="176" type="curve" smooth="yes"/>
			<point x="60" y="192"/>
			<point x="61" y="198"/>
			<point x="68" y="198" type="curve" smooth="yes"/>
			<point x="87" y="198"/>
			<point x="99" y="180"/>
			<point x="129" y="180" type="curve" smooth="yes"/>
			<point x="166" y="180"/>
			<point x="195" y="212"/>
			<point x="195" y="255" type="curve" smooth="yes"/>
			<point x="195" y="297"/>
			<point x="167" y="329"/>
			<point x="129" y="329" type="curve" smooth="yes"/>
			<point x="99" y="329"/>
			<point x="87" y="312"/>
			<point x="69" y="312" type="curve" smooth="yes"/>
			<point x="61" y="312"/>
			<point x="60" y="317"/>
			<point x="60" y="334" type="curve" smooth="yes"/>
			<point x="60" y="360"/>
			<point x="69" y="396"/>
			<point x="79" y="425" type="curve"/>
			<point x="112" y="417"/>
			<point x="139" y="411"/>
			<point x="176" y="411" type="curve"/>
			<point x="200" y="411"/>
			<point x="220" y="426"/>
			<point x="220" y="448" type="curve" smooth="yes"/>
			<point x="220" y="473"/>
			<point x="201" y="489"/>
			<point x="201" y="517" type="curve" smooth="yes"/>
			<point x="201" y="545"/>
			<point x="220" y="556"/>
			<point x="252" y="556" type="curve"/>
			<point x="284" y="556"/>
			<point x="303" y="545"/>
			<point x="303" y="517" type="curve" smooth="yes"/>
			<point x="303" y="489"/>
			<point x="284" y="473"/>
			<point x="284" y="448" type="curve" smooth="yes"/>
			<point x="284" y="426"/>
			<point x="304" y="411"/>
			<point x="328" y="411" type="curve"/>
			<point x="365" y="411"/>
			<point x="392" y="417"/>
			<point x="425" y="425" type="curve"/>
			<point x="435" y="396"/>
			<point x="444" y="360"/>
			<point x="444" y="334" type="curve" smooth="yes"/>
			<point x="444" y="317"/>
			<point x="443" y="312"/>
			<point x="435" y="312" type="curve" smooth="yes"/>
			<point x="417" y="312"/>
			<point x="405" y="329"/>
			<point x="375" y="329" type="curve" smooth="yes"/>
			<point x="337" y="329"/>
			<point x="309" y="297"/>
			<point x="309" y="255" type="curve" smooth="yes"/>
			<point x="309" y="212"/>
			<point x="338" y="180"/>
			<point x="375" y="180" type="curve" smooth="yes"/>
			<point x="405" y="180"/>
			<point x="417" y="198"/>
			<point x="436" y="198" type="curve" smooth="yes"/>
			<point x="443" y="198"/>
			<point x="444" y="192"/>
			<point x="444" y="176" type="curve" smooth="yes"/>
			<point x="444" y="149"/>
			<point x="435" y="113"/>
			<point x="425" y="84" type="curve"/>
			<point x="393" y="92"/>
			<point x="366" y="99"/>
			<point x="333" y="99" type="curve" smooth="yes"/>
			<point x="300" y="99"/>
			<point x="284" y="81"/>
			<point x="284" y="62" type="curve"/>
			<point x="284" y="40"/>
			<point x="304" y="15"/>
			<point x="304" y="-8" type="curve" smooth="yes"/>
			<point x="304" y="-35"/>
			<point x="283" y="-49"/>
		</contour>
		<contour>
			<point x="252" y="586" type="curve"/>
			<point x="203" y="586"/>
			<point x="170" y="562"/>
			<point x="170" y="517" type="curve" smooth="yes"/>
			<point x="170" y="483"/>
			<point x="191" y="464"/>
			<point x="191" y="448" type="curve" smooth="yes"/>
			<point x="191" y="444"/>
			<point x="188" y="441"/>
			<point x="175" y="441" type="curve"/>
			<point x="141" y="441"/>
			<point x="111" y="447"/>
			<point x="74" y="458" type="curve"/>
			<point x="55" y="449" type="line"/>
			<point x="39" y="405"/>
			<point x="30" y="363"/>
			<point x="30" y="334" type="curve" smooth="yes"/>
			<point x="30" y="299"/>
			<point x="40" y="281"/>
			<point x="69" y="281" type="curve" smooth="yes"/>
			<point x="94" y="281"/>
			<point x="110" y="300"/>
			<point x="129" y="300" type="curve" smooth="yes"/>
			<point x="149" y="300"/>
			<point x="165" y="281"/>
			<point x="165" y="255" type="curve" smooth="yes"/>
			<point x="165" y="228"/>
			<point x="149" y="209"/>
			<point x="129" y="209" type="curve" smooth="yes"/>
			<point x="108" y="209"/>
			<point x="99" y="227"/>
			<point x="67" y="227" type="curve" smooth="yes"/>
			<point x="40" y="227"/>
			<point x="30" y="210"/>
			<point x="30" y="176" type="curve" smooth="yes"/>
			<point x="30" y="146"/>
			<point x="39" y="104"/>
			<point x="55" y="60" type="curve"/>
			<point x="74" y="51" type="line"/>
			<point x="109" y="62"/>
			<point x="139" y="68"/>
			<point x="174" y="68" type="curve"/>
			<point x="187" y="68"/>
			<point x="191" y="64"/>
			<point x="191" y="60" type="curve" smooth="yes"/>
			<point x="191" y="51"/>
			<point x="171" y="23"/>
			<point x="171" y="-8" type="curve" smooth="yes"/>
			<point x="171" y="-52"/>
			<point x="204" y="-79"/>
			<point x="252" y="-79" type="curve"/>
			<point x="300" y="-79"/>
			<point x="333" y="-52"/>
			<point x="333" y="-8" type="curve" smooth="yes"/>
			<point x="333" y="23"/>
			<point x="313" y="51"/>
			<point x="313" y="60" type="curve" smooth="yes"/>
			<point x="313" y="64"/>
			<point x="317" y="68"/>
			<point x="330" y="68" type="curve"/>
			<point x="365" y="68"/>
			<point x="395" y="62"/>
			<point x="430" y="51" type="curve"/>
			<point x="449" y="60" type="line"/>
			<point x="465" y="104"/>
			<point x="474" y="146"/>
			<point x="474" y="176" type="curve" smooth="yes"/>
			<point x="474" y="210"/>
			<point x="464" y="227"/>
			<point x="437" y="227" type="curve" smooth="yes"/>
			<point x="405" y="227"/>
			<point x="396" y="209"/>
			<point x="375" y="209" type="curve" smooth="yes"/>
			<point x="355" y="209"/>
			<point x="339" y="228"/>
			<point x="339" y="255" type="curve" smooth="yes"/>
			<point x="339" y="281"/>
			<point x="355" y="300"/>
			<point x="375" y="300" type="curve" smooth="yes"/>
			<point x="394" y="300"/>
			<point x="410" y="281"/>
			<point x="435" y="281" type="curve" smooth="yes"/>
			<point x="464" y="281"/>
			<point x="474" y="299"/>
			<point x="474" y="334" type="curve" smooth="yes"/>
			<point x="474" y="363"/>
			<point x="465" y="405"/>
			<point x="449" y="449" type="curve"/>
			<point x="430" y="458" type="line"/>
			<point x="393" y="447"/>
			<point x="363" y="441"/>
			<point x="329" y="441" type="curve"/>
			<point x="316" y="441"/>
			<point x="313" y="444"/>
			<point x="313" y="448" type="curve" smooth="yes"/>
			<point x="313" y="464"/>
			<point x="334" y="483"/>
			<point x="334" y="517" type="curve" smooth="yes"/>
			<point x="334" y="562"/>
			<point x="301" y="586"/>
		</contour>
	</outline>
</glyph>
<glyph name="ampersand.alt" format="2">
	<advance width="713"/>
	<outline>
		<contour>
			<point x="515" y="366" type="line"/>
			<point x="515" y="183"/>
			<point x="446" y="60"/>
			<point x="296" y="60" type="curve" smooth="yes"/>
			<point x="195" y="60"/>
			<point x="142" y="119"/>
			<point x="142" y="194" type="curve"/>
			<point x="142" y="328"/>
			<point x="495" y="377"/>
			<point x="495" y="555" type="curve"/>
			<point x="495" y="656"/>
			<point x="428" y="710"/>
			<point x="315" y="710" type="curve" smooth="yes"/>
			<point x="205" y="710"/>
			<point x="126" y="638.93939"/>
			<point x="126" y="535" type="curve"/>
			<point x="126" y="348.41727"/>
			<point x="387.5394" y="166.83733"/>
			<point x="623" y="-11" type="curve"/>
			<point x="636" y="-14" type="line"/>
			<point x="687" y="49" type="line"/>
			<point x="687" y="64" type="line"/>
			<point x="466.66947" y="230.73662"/>
			<point x="221" y="395"/>
			<point x="221" y="535" type="curve" smooth="yes"/>
			<point x="221" y="611"/>
			<point x="264" y="640"/>
			<point x="319" y="640" type="curve"/>
			<point x="378" y="640"/>
			<point x="415" y="610"/>
			<point x="415" y="556" type="curve"/>
			<point x="415" y="413"/>
			<point x="50" y="391"/>
			<point x="50" y="175" type="curve"/>
			<point x="50" y="49"/>
			<point x="151" y="-10"/>
			<point x="286" y="-10" type="curve"/>
			<point x="501" y="-10"/>
			<point x="592" y="127"/>
			<point x="592" y="366" type="curve"/>
			<point x="554" y="353" type="line"/>
			<point x="572" y="353"/>
			<point x="643.45455" y="345"/>
			<point x="677" y="345" type="curve"/>
			<point x="682" y="353" type="line"/>
			<point x="682" y="413" type="line"/>
			<point x="677" y="419" type="line"/>
			<point x="521" y="419" type="line"/>
			<point x="515" y="411" type="line"/>
		</contour>
	</outline>
</glyph>
<glyph name="arrowright.alt" format="2">
	<advance width="750"/>
	<outline>
		<contour>
			<point x="375" y="-10" type="curve" smooth="yes"/>
			<point x="575" y="-10"/>
			<point x="700" y="129"/>
			<point x="700" y="350" type="curve" smooth="yes"/>
			<point x="700" y="571"/>
			<point x="575" y="710"/>
			<point x="375" y="710" type="curve" smooth="yes"/>
			<point x="175" y="710"/>
			<point x="50" y="571"/>
			<point x="50" y="350" type="curve" smooth="yes"/>
			<point x="50" y="129"/>
			<point x="175" y="-10"/>
		</contour>
		<contour>
			<point x="375" y="55" type="curve" smooth="yes"/>
			<point x="208" y="55"/>
			<point x="120" y="155"/>
			<point x="120" y="350" type="curve" smooth="yes"/>
			<point x="120" y="545"/>
			<point x="208" y="645"/>
			<point x="375" y="645" type="curve" smooth="yes"/>
			<point x="542" y="645"/>
			<point x="630" y="545"/>
			<point x="630" y="350" type="curve" smooth="yes"/>
			<point x="630" y="155"/>
			<point x="542" y="55"/>
		</contour>
		<contour>
			<point x="511" y="323" type="curve"/>
			<point x="511" y="391" type="line"/>
			<point x="469" y="391"/>
			<point x="259" y="397"/>
			<point x="194" y="399" type="curve"/>
			<point x="185" y="391" type="line"/>
			<point x="185" y="323" type="line"/>
			<point x="194" y="315" type="line"/>
			<point x="260" y="317"/>
			<point x="469" y="323"/>
		</contour>
		<contour>
			<point x="518" y="348" type="curve"/>
			<point x="518" y="365" type="line"/>
			<point x="470" y="316"/>
			<point x="409" y="267"/>
			<point x="351" y="218" type="curve"/>
			<point x="350" y="206" type="line"/>
			<point x="402" y="159" type="line"/>
			<point x="414" y="160" type="line"/>
			<point x="462" y="217"/>
			<point x="530" y="292"/>
			<point x="569" y="341" type="curve"/>
			<point x="569" y="374" type="line"/>
			<point x="530" y="423"/>
			<point x="462" y="498"/>
			<point x="414" y="555" type="curve"/>
			<point x="402" y="556" type="line"/>
			<point x="350" y="509" type="line"/>
			<point x="351" y="497" type="line"/>
			<point x="409" y="448"/>
			<point x="469" y="398"/>
		</contour>
	</outline>
</glyph>
<glyph name="arrowright.alt2" format="2">
	<advance width="750"/>
	<outline>
		<contour>
			<point x="375" y="-10" type="curve" smooth="yes"/>
			<point x="575" y="-10"/>
			<point x="700" y="129"/>
			<point x="700" y="350" type="curve" smooth="yes"/>
			<point x="700" y="571"/>
			<point x="575" y="710"/>
			<point x="375" y="710" type="curve" smooth="yes"/>
			<point x="175" y="710"/>
			<point x="50" y="571"/>
			<point x="50" y="350" type="curve" smooth="yes"/>
			<point x="50" y="129"/>
			<point x="175" y="-10"/>
		</contour>
		<contour>
			<point x="414" y="160" type="curve"/>
			<point x="402" y="159" type="line"/>
			<point x="350" y="206" type="line"/>
			<point x="351" y="218" type="line"/>
			<point x="392" y="253"/>
			<point x="435" y="288"/>
			<point x="473" y="322" type="curve"/>
			<point x="398" y="321"/>
			<point x="248" y="317"/>
			<point x="194" y="315" type="curve"/>
			<point x="185" y="323" type="line"/>
			<point x="185" y="391" type="line"/>
			<point x="194" y="399" type="line"/>
			<point x="247" y="397"/>
			<point x="397" y="393"/>
			<point x="473" y="392" type="curve"/>
			<point x="434" y="427"/>
			<point x="392" y="462"/>
			<point x="351" y="497" type="curve"/>
			<point x="350" y="509" type="line"/>
			<point x="402" y="556" type="line"/>
			<point x="414" y="555" type="line"/>
			<point x="462" y="498"/>
			<point x="530" y="423"/>
			<point x="569" y="374" type="curve"/>
			<point x="569" y="341" type="line"/>
			<point x="530" y="292"/>
			<point x="462" y="217"/>
		</contour>
	</outline>
</glyph>
<glyph name="arrowup.alt2" format="2">
	<advance width="750"/>
	<outline>
		<contour>
			<point x="375" y="-10" type="curve" smooth="yes"/>
			<point x="575" y="-10"/>
			<point x="700" y="129"/>
			<point x="700" y="350" type="curve" smooth="yes"/>
			<point x="700" y="571"/>
			<point x="575" y="710"/>
			<point x="375" y="710" type="curve" smooth="yes"/>
			<point x="175" y="710"/>
			<point x="50" y="571"/>
			<point x="50" y="350" type="curve" smooth="yes"/>
			<point x="50" y="129"/>
			<point x="175" y="-10"/>
		</contour>
		<contour>
			<point x="416" y="160" type="curve"/>
			<point x="408" y="151" type="line"/>
			<point x="344" y="151" type="line"/>
			<point x="336" y="160" type="line"/>
			<point x="338" y="215"/>
			<point x="342" y="373"/>
			<point x="344" y="450" type="curve"/>
			<point x="307" y="412"/>
			<point x="269" y="369"/>
			<point x="236" y="332" type="curve"/>
			<point x="224" y="331" type="line"/>
			<point x="177" y="378" type="line"/>
			<point x="178" y="390" type="line"/>
			<point x="234" y="438"/>
			<point x="313" y="505"/>
			<point x="359" y="545" type="curve"/>
			<point x="392" y="545" type="line"/>
			<point x="438" y="505"/>
			<point x="517" y="438"/>
			<point x="573" y="390" type="curve"/>
			<point x="574" y="378" type="line"/>
			<point x="527" y="331" type="line"/>
			<point x="515" y="332" type="line"/>
			<point x="481" y="369"/>
			<point x="444" y="412"/>
			<point x="409" y="450" type="curve"/>
			<point x="410" y="372"/>
			<point x="414" y="216"/>
		</contour>
	</outline>
</glyph>
<glyph name="brevecomb.case" format="2">
	<advance width="312"/>
	<anchor x="154" y="701" name="_top"/>
	<outline>
		<contour>
			<point x="156" y="757" type="curve" smooth="yes"/>
			<point x="37" y="757"/>
			<point x="0" y="861"/>
			<point x="0" y="935" type="curve"/>
			<point x="49" y="942" type="line"/>
			<point x="67" y="881"/>
			<point x="97" y="826"/>
			<point x="156" y="826" type="curve" smooth="yes"/>
			<point x="215" y="826"/>
			<point x="245" y="881"/>
			<point x="263" y="942" type="curve"/>
			<point x="312" y="935" type="line"/>
			<point x="312" y="861"/>
			<point x="275" y="757"/>
		</contour>
	</outline>
</glyph>
<glyph name="caron.alt" format="2">
	<advance width="109"/>
	<outline>
		<contour>
			<point x="86" y="513" type="line"/>
			<point x="95" y="520" type="line"/>
			<point x="103.01361" y="602.13947"/>
			<point x="109" y="686"/>
			<point x="109" y="770" type="curve"/>
			<point x="104" y="780" type="line"/>
			<point x="7" y="780" type="line"/>
			<point x="2" y="770" type="line"/>
			<point x="18.92444" y="680.40003"/>
			<point x="24.00094" y="613.98234"/>
			<point x="29" y="520" type="curve"/>
			<point x="39" y="513" type="line"/>
		</contour>
	</outline>
</glyph>
<glyph name="circulo.001" format="2">
	<advance width="599"/>
	<outline>
		<contour>
			<point x="290" y="106" type="curve" smooth="yes"/>
			<point x="431" y="106"/>
			<point x="529" y="206"/>
			<point x="529" y="351" type="curve" smooth="yes"/>
			<point x="529" y="496"/>
			<point x="431" y="596"/>
			<point x="290" y="596" type="curve" smooth="yes"/>
			<point x="148" y="596"/>
			<point x="50" y="496"/>
			<point x="50" y="351" type="curve" smooth="yes"/>
			<point x="50" y="206"/>
			<point x="148" y="106"/>
		</contour>
	</outline>
</glyph>
<glyph name="cuadrado.001" format="2">
	<advance width="574"/>
	<outline>
		<contour>
			<point x="60" y="111" type="line"/>
			<point x="514" y="111" type="line"/>
			<point x="524" y="121" type="line"/>
			<point x="524" y="579" type="line"/>
			<point x="514" y="589" type="line"/>
			<point x="60" y="589" type="line"/>
			<point x="50" y="579" type="line"/>
			<point x="50" y="121" type="line"/>
		</contour>
	</outline>
</glyph>
<glyph name="cuadrado" format="2">
	<advance width="574"/>
	<outline>
		<contour>
			<point x="60" y="111" type="line"/>
			<point x="514" y="111" type="line"/>
			<point x="524" y="121" type="line"/>
			<point x="524" y="579" type="line"/>
			<point x="514" y="589" type="line"/>
			<point x="60" y="589" type="line"/>
			<point x="50" y="579" type="line"/>
			<point x="50" y="121" type="line"/>
		</contour>
		<contour>
			<point x="123" y="176" type="line"/>
			<point x="115" y="184" type="line"/>
			<point x="115" y="516" type="line"/>
			<point x="123" y="524" type="line"/>
			<point x="450" y="524" type="line"/>
			<point x="458" y="516" type="line"/>
			<point x="458" y="184" type="line"/>
			<point x="450" y="176" type="line"/>
		</contour>
	</outline>
</glyph>
<glyph name="dollar.alt" format="2">
	<advance width="503"/>
	<outline>
		<contour>
			<point x="284" y="-11" type="curve"/>
			<point x="389" y="-11"/>
			<point x="473" y="70"/>
			<point x="473" y="195" type="curve" smooth="yes"/>
			<point x="473" y="417"/>
			<point x="155" y="412"/>
			<point x="155" y="546" type="curve"/>
			<point x="155" y="597"/>
			<point x="189" y="627"/>
			<point x="246" y="627" type="curve" smooth="yes"/>
			<point x="304" y="627"/>
			<point x="390" y="602"/>
			<point x="435" y="585" type="curve"/>
			<point x="441" y="588" type="line"/>
			<point x="465" y="674" type="line"/>
			<point x="461" y="681" type="line"/>
			<point x="387" y="703"/>
			<point x="327" y="710"/>
			<point x="266" y="710" type="curve" smooth="yes"/>
			<point x="160" y="710"/>
			<point x="65" y="636"/>
			<point x="65" y="527" type="curve"/>
			<point x="65" y="331"/>
			<point x="383" y="310"/>
			<point x="383" y="186" type="curve"/>
			<point x="383" y="106"/>
			<point x="340" y="74"/>
			<point x="273" y="74" type="curve" smooth="yes"/>
			<point x="217" y="74"/>
			<point x="159" y="93"/>
			<point x="74" y="119" type="curve"/>
			<point x="66" y="117" type="line"/>
			<point x="40" y="30" type="line"/>
			<point x="45" y="22" type="line"/>
			<point x="113" y="4"/>
			<point x="190" y="-11"/>
		</contour>
		<contour>
			<point x="296" y="38" type="curve"/>
			<point x="209" y="38" type="line"/>
			<point x="208" y="-6"/>
			<point x="206" y="-54"/>
			<point x="204" y="-97" type="curve"/>
			<point x="212" y="-106" type="line"/>
			<point x="293" y="-106" type="line"/>
			<point x="301" y="-97" type="line"/>
			<point x="299" y="-55"/>
			<point x="297" y="-6"/>
		</contour>
		<contour>
			<point x="223" y="659" type="curve"/>
			<point x="310" y="659" type="line"/>
			<point x="312" y="696"/>
			<point x="313" y="728"/>
			<point x="315" y="775" type="curve"/>
			<point x="307" y="784" type="line"/>
			<point x="226" y="784" type="line"/>
			<point x="218" y="775" type="line"/>
			<point x="220" y="728"/>
			<point x="221" y="696"/>
		</contour>
	</outline>
</glyph>
<glyph name="enojado" format="2">
	<advance width="770"/>
	<guideline x="385" y="630" angle="90"/>
	<guideline x="285" y="630" angle="90"/>
	<guideline x="485" y="630" angle="90"/>
	<outline>
		<contour>
			<point x="361" y="495" type="line"/>
			<point x="356" y="499" type="line"/>
			<point x="193" y="536" type="line"/>
			<point x="188" y="533" type="line"/>
			<point x="188" y="474" type="line"/>
			<point x="192" y="468" type="line"/>
			<point x="357" y="432" type="line"/>
			<point x="361" y="436" type="line"/>
		</contour>
		<contour>
			<point x="274" y="294" type="curve" smooth="yes"/>
			<point x="313" y="294"/>
			<point x="337" y="319"/>
			<point x="337" y="359" type="curve" smooth="yes"/>
			<point x="337" y="399"/>
			<point x="313" y="424"/>
			<point x="274" y="424" type="curve"/>
			<point x="236" y="424"/>
			<point x="212" y="399"/>
			<point x="212" y="359" type="curve" smooth="yes"/>
			<point x="212" y="319"/>
			<point x="236" y="294"/>
		</contour>
		<contour>
			<point x="385" y="-10" type="curve" smooth="yes"/>
			<point x="585" y="-10"/>
			<point x="710" y="129"/>
			<point x="710" y="350" type="curve" smooth="yes"/>
			<point x="710" y="571"/>
			<point x="585" y="710"/>
			<point x="385" y="710" type="curve" smooth="yes"/>
			<point x="185" y="710"/>
			<point x="60" y="571"/>
			<point x="60" y="350" type="curve" smooth="yes"/>
			<point x="60" y="129"/>
			<point x="185" y="-10"/>
		</contour>
		<contour>
			<point x="385" y="55" type="curve" smooth="yes"/>
			<point x="218" y="55"/>
			<point x="130" y="155"/>
			<point x="130" y="350" type="curve" smooth="yes"/>
			<point x="130" y="545"/>
			<point x="218" y="645"/>
			<point x="385" y="645" type="curve" smooth="yes"/>
			<point x="552" y="645"/>
			<point x="640" y="545"/>
			<point x="640" y="350" type="curve" smooth="yes"/>
			<point x="640" y="155"/>
			<point x="552" y="55"/>
		</contour>
		<contour>
			<point x="385" y="256" type="line"/>
			<point x="310" y="256"/>
			<point x="248" y="220"/>
			<point x="212" y="153" type="curve"/>
			<point x="213" y="148" type="line"/>
			<point x="238" y="129" type="line"/>
			<point x="243" y="129" type="line"/>
			<point x="270" y="162"/>
			<point x="329" y="186"/>
			<point x="385" y="186" type="curve"/>
		</contour>
		<contour>
			<point x="409" y="495" type="line"/>
			<point x="409" y="436" type="line"/>
			<point x="413" y="432" type="line"/>
			<point x="578" y="468" type="line"/>
			<point x="582" y="474" type="line"/>
			<point x="582" y="533" type="line"/>
			<point x="577" y="536" type="line"/>
			<point x="414" y="499" type="line"/>
		</contour>
		<contour>
			<point x="496" y="294" type="curve" smooth="yes"/>
			<point x="534" y="294"/>
			<point x="558" y="319"/>
			<point x="558" y="359" type="curve" smooth="yes"/>
			<point x="558" y="399"/>
			<point x="534" y="424"/>
			<point x="496" y="424" type="curve"/>
			<point x="457" y="424"/>
			<point x="433" y="399"/>
			<point x="433" y="359" type="curve" smooth="yes"/>
			<point x="433" y="319"/>
			<point x="457" y="294"/>
		</contour>
		<contour>
			<point x="385" y="256" type="curve"/>
			<point x="385" y="186" type="line"/>
			<point x="441" y="186"/>
			<point x="500" y="162"/>
			<point x="527" y="129" type="curve"/>
			<point x="532" y="129" type="line"/>
			<point x="557" y="148" type="line"/>
			<point x="558" y="153" type="line"/>
			<point x="522" y="220"/>
			<point x="460" y="256"/>
		</contour>
	</outline>
</glyph>
<glyph name="feliz" format="2">
	<advance width="770"/>
	<guideline x="385" y="630" angle="90"/>
	<guideline x="285" y="630" angle="90"/>
	<guideline x="485" y="630" angle="90"/>
	<outline>
		<contour>
			<point x="385" y="-10" type="curve" smooth="yes"/>
			<point x="585" y="-10"/>
			<point x="710" y="129"/>
			<point x="710" y="350" type="curve" smooth="yes"/>
			<point x="710" y="571"/>
			<point x="585" y="710"/>
			<point x="385" y="710" type="curve" smooth="yes"/>
			<point x="185" y="710"/>
			<point x="60" y="571"/>
			<point x="60" y="350" type="curve" smooth="yes"/>
			<point x="60" y="129"/>
			<point x="185" y="-10"/>
		</contour>
		<contour>
			<point x="385" y="140" type="curve"/>
			<point x="385" y="210" type="line"/>
			<point x="329" y="210"/>
			<point x="270" y="234"/>
			<point x="243" y="267" type="curve"/>
			<point x="238" y="267" type="line"/>
			<point x="213" y="248" type="line"/>
			<point x="212" y="243" type="line"/>
			<point x="248" y="176"/>
			<point x="310" y="140"/>
		</contour>
		<contour>
			<point x="285" y="369" type="curve" smooth="yes"/>
			<point x="322" y="369"/>
			<point x="343" y="396"/>
			<point x="343" y="449" type="curve" smooth="yes"/>
			<point x="343" y="501"/>
			<point x="322" y="528"/>
			<point x="285" y="528" type="curve" smooth="yes"/>
			<point x="249" y="528"/>
			<point x="228" y="501"/>
			<point x="228" y="449" type="curve" smooth="yes"/>
			<point x="228" y="396"/>
			<point x="249" y="369"/>
		</contour>
		<contour>
			<point x="385" y="55" type="curve" smooth="yes"/>
			<point x="218" y="55"/>
			<point x="130" y="155"/>
			<point x="130" y="350" type="curve" smooth="yes"/>
			<point x="130" y="545"/>
			<point x="218" y="645"/>
			<point x="385" y="645" type="curve" smooth="yes"/>
			<point x="552" y="645"/>
			<point x="640" y="545"/>
			<point x="640" y="350" type="curve" smooth="yes"/>
			<point x="640" y="155"/>
			<point x="552" y="55"/>
		</contour>
		<contour>
			<point x="485" y="369" type="curve" smooth="yes"/>
			<point x="521" y="369"/>
			<point x="542" y="396"/>
			<point x="542" y="449" type="curve" smooth="yes"/>
			<point x="542" y="501"/>
			<point x="521" y="528"/>
			<point x="485" y="528" type="curve" smooth="yes"/>
			<point x="448" y="528"/>
			<point x="427" y="501"/>
			<point x="427" y="449" type="curve" smooth="yes"/>
			<point x="427" y="396"/>
			<point x="448" y="369"/>
		</contour>
		<contour>
			<point x="385" y="140" type="line"/>
			<point x="460" y="140"/>
			<point x="522" y="176"/>
			<point x="558" y="243" type="curve"/>
			<point x="557" y="248" type="line"/>
			<point x="532" y="267" type="line"/>
			<point x="527" y="267" type="line"/>
			<point x="500" y="234"/>
			<point x="441" y="210"/>
			<point x="385" y="210" type="curve"/>
		</contour>
	</outline>
</glyph>
<glyph name="five.tf" format="2">
	<advance width="600"/>
	<outline>
		<contour>
			<point x="275" y="-9" type="curve" smooth="yes"/>
			<point x="423" y="-9"/>
			<point x="528" y="84"/>
			<point x="528" y="216" type="curve" smooth="yes"/>
			<point x="528" y="360"/>
			<point x="438" y="415"/>
			<point x="185" y="452" type="curve"/>
			<point x="219" y="432" type="line"/>
			<point x="239" y="647" type="line"/>
			<point x="196" y="619" type="line"/>
			<point x="290" y="619"/>
			<point x="404" y="614"/>
			<point x="486" y="611" type="curve"/>
			<point x="491" y="620" type="line"/>
			<point x="491" y="691" type="line"/>
			<point x="487" y="701" type="line"/>
			<point x="438" y="698"/>
			<point x="382" y="696"/>
			<point x="327" y="696" type="curve" smooth="yes"/>
			<point x="260" y="696"/>
			<point x="216" y="698"/>
			<point x="157" y="700" type="curve"/>
			<point x="151" y="690" type="line"/>
			<point x="123" y="383" type="line"/>
			<point x="135" y="373" type="line"/>
			<point x="335" y="340"/>
			<point x="437" y="309"/>
			<point x="437" y="206" type="curve"/>
			<point x="437" y="127"/>
			<point x="400" y="73"/>
			<point x="317" y="73" type="curve" smooth="yes"/>
			<point x="260" y="73"/>
			<point x="194" y="97"/>
			<point x="118" y="127" type="curve"/>
			<point x="113" y="124" type="line"/>
			<point x="80" y="37" type="line"/>
			<point x="82" y="30" type="line"/>
			<point x="146" y="5"/>
			<point x="207" y="-9"/>
		</contour>
	</outline>
</glyph>
<glyph name="g.alt" format="2">
	<advance width="501"/>
	<outline>
		<contour>
			<point x="233" y="-220" type="curve" smooth="yes"/>
			<point x="388" y="-220"/>
			<point x="450" y="-114"/>
			<point x="450" y="157" type="curve" smooth="yes"/>
			<point x="450" y="310" type="line" smooth="yes"/>
			<point x="450" y="415"/>
			<point x="453" y="462"/>
			<point x="458" y="493" type="curve"/>
			<point x="453" y="503" type="line"/>
			<point x="390" y="510" type="line"/>
			<point x="382" y="503" type="line"/>
			<point x="366" y="440" type="line"/>
			<point x="375" y="440" type="line"/>
			<point x="357" y="475"/>
			<point x="298" y="519"/>
			<point x="227" y="519" type="curve" smooth="yes"/>
			<point x="130" y="519"/>
			<point x="50" y="455"/>
			<point x="50" y="258" type="curve" smooth="yes"/>
			<point x="50" y="79"/>
			<point x="108" y="-10"/>
			<point x="220" y="-10" type="curve" smooth="yes"/>
			<point x="292" y="-10"/>
			<point x="356" y="27"/>
			<point x="380" y="118" type="curve"/>
			<point x="366" y="118" type="line"/>
			<point x="366" y="-65"/>
			<point x="333" y="-133"/>
			<point x="234" y="-133" type="curve" smooth="yes"/>
			<point x="182" y="-133"/>
			<point x="135" y="-117"/>
			<point x="74" y="-89" type="curve"/>
			<point x="66" y="-89" type="line"/>
			<point x="34" y="-156" type="line"/>
			<point x="38" y="-163" type="line"/>
			<point x="102" y="-199"/>
			<point x="170" y="-220"/>
		</contour>
		<contour>
			<point x="241" y="64" type="curve" smooth="yes"/>
			<point x="173" y="64"/>
			<point x="145" y="134"/>
			<point x="145" y="263" type="curve"/>
			<point x="145" y="388"/>
			<point x="179" y="440"/>
			<point x="253" y="440" type="curve" smooth="yes"/>
			<point x="286" y="440"/>
			<point x="342" y="420"/>
			<point x="385" y="390" type="curve"/>
			<point x="365" y="419" type="line"/>
			<point x="365" y="269" type="line" smooth="yes"/>
			<point x="365" y="136"/>
			<point x="325" y="64"/>
		</contour>
	</outline>
</glyph>
<glyph name="hexagono" format="2">
	<advance width="662"/>
	<outline>
		<contour>
			<point x="195" y="586" type="line"/>
			<point x="60" y="353" type="line"/>
			<point x="195" y="114" type="line"/>
			<point x="467" y="114" type="line"/>
			<point x="602" y="353" type="line"/>
			<point x="467" y="586" type="line"/>
		</contour>
		<contour>
			<point x="232" y="524" type="line"/>
			<point x="431" y="524" type="line"/>
			<point x="530" y="353" type="line"/>
			<point x="431" y="178" type="line"/>
			<point x="232" y="178" type="line"/>
			<point x="132" y="353" type="line"/>
		</contour>
	</outline>
</glyph>
<glyph name="hungarumlautcomb.case" format="2">
	<advance width="291"/>
	<anchor x="54" y="701" name="_top"/>
	<outline>
		<contour>
			<point x="108" y="765" type="line"/>
			<point x="116" y="767" type="line"/>
			<point x="310" y="896" type="line"/>
			<point x="309" y="905" type="line"/>
			<point x="252" y="966" type="line"/>
			<point x="241" y="967" type="line"/>
			<point x="76" y="807" type="line"/>
			<point x="76" y="799" type="line"/>
		</contour>
		<contour>
			<point x="-31" y="771" type="line"/>
			<point x="-23" y="774" type="line"/>
			<point x="137" y="943" type="line"/>
			<point x="134" y="952" type="line"/>
			<point x="65" y="999" type="line"/>
			<point x="54" y="997" type="line"/>
			<point x="-71" y="805" type="line"/>
			<point x="-69" y="797" type="line"/>
		</contour>
	</outline>
</glyph>
<glyph name="lapiz" format="2">
	<advance width="368"/>
	<outline>
		<contour>
			<point x="234" y="564" type="line"/>
			<point x="185" y="551" type="line"/>
			<point x="277" y="212" type="line" smooth="yes"/>
			<point x="281" y="198"/>
			<point x="275" y="191"/>
			<point x="262" y="187" type="curve" smooth="yes"/>
			<point x="207" y="173" type="line" smooth="yes"/>
			<point x="194" y="169"/>
			<point x="185" y="172"/>
			<point x="181" y="187" type="curve" smooth="yes"/>
			<point x="92" y="526" type="line"/>
			<point x="43" y="513" type="line"/>
			<point x="149" y="149" type="line" smooth="yes"/>
			<point x="158" y="121"/>
			<point x="176" y="110"/>
			<point x="202" y="117" type="curve" smooth="yes"/>
			<point x="294" y="141" type="line" smooth="yes"/>
			<point x="321" y="148"/>
			<point x="331" y="168"/>
			<point x="324" y="196" type="curve" smooth="yes"/>
		</contour>
		<contour>
			<point x="234" y="616" type="line" smooth="yes"/>
			<point x="215" y="687"/>
			<point x="162" y="717"/>
			<point x="95" y="699" type="curve" smooth="yes"/>
			<point x="19" y="678"/>
			<point x="-3" y="629"/>
			<point x="16" y="557" type="curve" smooth="yes"/>
			<point x="25" y="523" type="line"/>
			<point x="244" y="581" type="line"/>
		</contour>
		<contour>
			<point x="73" y="573" type="line"/>
			<point x="61" y="615"/>
			<point x="65" y="636"/>
			<point x="109" y="647" type="curve" smooth="yes"/>
			<point x="153" y="659"/>
			<point x="167" y="643"/>
			<point x="178" y="601" type="curve"/>
		</contour>
		<contour>
			<point x="263" y="9" type="line"/>
			<point x="295" y="17" type="line"/>
			<point x="326" y="174" type="line"/>
			<point x="284" y="181" type="line"/>
			<point x="263" y="51" type="line"/>
			<point x="274" y="54" type="line"/>
			<point x="191" y="156" type="line"/>
			<point x="158" y="130" type="line"/>
		</contour>
		<contour>
			<point x="199" y="546" type="line"/>
			<point x="185" y="599" type="line"/>
			<point x="21" y="555" type="line" smooth="yes"/>
			<point x="2" y="550"/>
			<point x="-3" y="535"/>
			<point x="1" y="521" type="curve" smooth="yes"/>
			<point x="4" y="509"/>
			<point x="16" y="497"/>
			<point x="35" y="502" type="curve" smooth="yes"/>
		</contour>
		<contour>
			<point x="75" y="513" type="line"/>
			<point x="240" y="557" type="line" smooth="yes"/>
			<point x="258" y="562"/>
			<point x="263" y="578"/>
			<point x="260" y="591" type="curve" smooth="yes"/>
			<point x="256" y="604"/>
			<point x="244" y="614"/>
			<point x="226" y="609" type="curve" smooth="yes"/>
			<point x="61" y="565" type="line"/>
		</contour>
	</outline>
</glyph>
<glyph name="lavar" format="2">
	<advance width="739"/>
	<outline>
		<contour>
			<point x="102" y="32" type="line"/>
			<point x="133" y="32" type="line" smooth="yes"/>
			<point x="227" y="32"/>
			<point x="305" y="-13"/>
			<point x="376" y="-13" type="curve"/>
			<point x="456" y="-13"/>
			<point x="484" y="14"/>
			<point x="484" y="39" type="curve" smooth="yes"/>
			<point x="484" y="69"/>
			<point x="467" y="83"/>
			<point x="399" y="87" type="curve"/>
			<point x="399" y="77" type="line"/>
			<point x="505" y="77"/>
			<point x="539" y="87"/>
			<point x="539" y="118" type="curve" smooth="yes"/>
			<point x="539" y="145"/>
			<point x="519" y="155"/>
			<point x="447" y="155" type="curve"/>
			<point x="447" y="149" type="line"/>
			<point x="555" y="149"/>
			<point x="580" y="161"/>
			<point x="580" y="188" type="curve" smooth="yes"/>
			<point x="580" y="218"/>
			<point x="547" y="225"/>
			<point x="466" y="225" type="curve"/>
			<point x="466" y="217" type="line"/>
			<point x="542" y="217"/>
			<point x="553" y="239"/>
			<point x="553" y="264" type="curve" smooth="yes"/>
			<point x="553" y="286"/>
			<point x="535" y="305"/>
			<point x="446" y="305" type="curve" smooth="yes"/>
			<point x="415" y="305"/>
			<point x="385" y="301"/>
			<point x="346" y="296" type="curve"/>
			<point x="350" y="277" type="line"/>
			<point x="401" y="287"/>
			<point x="457" y="344"/>
			<point x="457" y="393" type="curve" smooth="yes"/>
			<point x="457" y="428"/>
			<point x="435" y="452"/>
			<point x="397" y="452" type="curve"/>
			<point x="344" y="452"/>
			<point x="261" y="329"/>
			<point x="149" y="329" type="curve" smooth="yes"/>
			<point x="122" y="329"/>
			<point x="102" y="335"/>
			<point x="66" y="346" type="curve"/>
			<point x="50" y="304" type="line"/>
			<point x="89" y="289"/>
			<point x="114" y="285"/>
			<point x="150" y="285" type="curve" smooth="yes"/>
			<point x="262" y="285"/>
			<point x="352" y="406"/>
			<point x="387" y="406" type="curve" smooth="yes"/>
			<point x="403" y="406"/>
			<point x="411" y="399"/>
			<point x="411" y="382" type="curve" smooth="yes"/>
			<point x="411" y="341"/>
			<point x="369" y="319"/>
			<point x="317" y="288" type="curve"/>
			<point x="328" y="266" type="line"/>
			<point x="381" y="271"/>
			<point x="419" y="273"/>
			<point x="445" y="273" type="curve" smooth="yes"/>
			<point x="500" y="273"/>
			<point x="509" y="265"/>
			<point x="509" y="256" type="curve" smooth="yes"/>
			<point x="509" y="242"/>
			<point x="494" y="234"/>
			<point x="302" y="234" type="curve"/>
			<point x="302" y="204" type="line"/>
			<point x="516" y="204"/>
			<point x="538" y="202"/>
			<point x="538" y="188" type="curve" smooth="yes"/>
			<point x="538" y="175"/>
			<point x="516" y="170"/>
			<point x="301" y="170" type="curve"/>
			<point x="301" y="140" type="line"/>
			<point x="471" y="140"/>
			<point x="489" y="135"/>
			<point x="489" y="122" type="curve" smooth="yes"/>
			<point x="489" y="107"/>
			<point x="471" y="107"/>
			<point x="299" y="107" type="curve"/>
			<point x="299" y="75" type="line"/>
			<point x="423" y="65"/>
			<point x="440" y="58"/>
			<point x="440" y="44" type="curve"/>
			<point x="440" y="30"/>
			<point x="427" y="24"/>
			<point x="376" y="24" type="curve" smooth="yes"/>
			<point x="310" y="24"/>
			<point x="236" y="69"/>
			<point x="143" y="69" type="curve" smooth="yes"/>
			<point x="102" y="69" type="line"/>
		</contour>
		<contour>
			<point x="364" y="545" type="curve" smooth="yes"/>
			<point x="394" y="545"/>
			<point x="412" y="561"/>
			<point x="412" y="592" type="curve" smooth="yes"/>
			<point x="412" y="632"/>
			<point x="385" y="655"/>
			<point x="368" y="700" type="curve"/>
			<point x="359" y="700" type="line"/>
			<point x="342" y="655"/>
			<point x="316" y="632"/>
			<point x="316" y="592" type="curve" smooth="yes"/>
			<point x="316" y="561"/>
			<point x="333" y="545"/>
		</contour>
		<contour>
			<point x="608" y="134"/>
			<point x="646" y="155"/>
			<point x="646" y="187" type="curve" smooth="yes"/>
			<point x="646" y="215"/>
			<point x="625" y="226"/>
			<point x="547" y="226" type="curve"/>
			<point x="547" y="220" type="line"/>
			<point x="662" y="220"/>
			<point x="689" y="234"/>
			<point x="689" y="263" type="curve" smooth="yes"/>
			<point x="689" y="297"/>
			<point x="653" y="305"/>
			<point x="566" y="305" type="curve"/>
			<point x="566" y="297" type="line"/>
			<point x="647" y="297"/>
			<point x="659" y="319"/>
			<point x="659" y="344" type="curve" smooth="yes"/>
			<point x="659" y="366"/>
			<point x="640" y="385"/>
			<point x="546" y="385" type="curve" smooth="yes"/>
			<point x="515" y="385"/>
			<point x="485" y="381"/>
			<point x="446" y="376" type="curve"/>
			<point x="450" y="357" type="line"/>
			<point x="499" y="367"/>
			<point x="552" y="417"/>
			<point x="552" y="460" type="curve" smooth="yes"/>
			<point x="552" y="496"/>
			<point x="530" y="521"/>
			<point x="493" y="521" type="curve"/>
			<point x="441" y="521"/>
			<point x="369" y="409"/>
			<point x="249" y="409" type="curve" smooth="yes"/>
			<point x="222" y="409"/>
			<point x="202" y="415"/>
			<point x="166" y="426" type="curve"/>
			<point x="150" y="384" type="line"/>
			<point x="189" y="369"/>
			<point x="214" y="365"/>
			<point x="250" y="365" type="curve" smooth="yes"/>
			<point x="360" y="365"/>
			<point x="449" y="476"/>
			<point x="483" y="476" type="curve" smooth="yes"/>
			<point x="500" y="476"/>
			<point x="508" y="469"/>
			<point x="508" y="451" type="curve" smooth="yes"/>
			<point x="508" y="415"/>
			<point x="466" y="397"/>
			<point x="417" y="368" type="curve"/>
			<point x="428" y="346" type="line"/>
			<point x="481" y="351"/>
			<point x="519" y="353"/>
			<point x="545" y="353" type="curve" smooth="yes"/>
			<point x="600" y="353"/>
			<point x="609" y="345"/>
			<point x="609" y="336" type="curve" smooth="yes"/>
			<point x="609" y="322"/>
			<point x="594" y="314"/>
			<point x="402" y="314" type="curve"/>
			<point x="402" y="281" type="line"/>
			<point x="619" y="281"/>
			<point x="641" y="279"/>
			<point x="641" y="263" type="curve" smooth="yes"/>
			<point x="641" y="248"/>
			<point x="629" y="241"/>
			<point x="513" y="241" type="curve"/>
			<point x="513" y="211" type="line"/>
			<point x="602" y="211"/>
			<point x="609" y="204"/>
			<point x="609" y="187" type="curve" smooth="yes"/>
			<point x="609" y="169"/>
			<point x="586" y="163"/>
			<point x="504" y="163" type="curve"/>
			<point x="504" y="134" type="line"/>
		</contour>
	</outline>
</glyph>
<glyph name="macron.case" format="2">
	<advance width="320"/>
	<anchor x="163" y="701" name="_top"/>
	<outline>
		<contour>
			<point x="310" y="809" type="line"/>
			<point x="249" y="811"/>
			<point x="204" y="811"/>
			<point x="160" y="811" type="curve" smooth="yes"/>
			<point x="115" y="811"/>
			<point x="70" y="811"/>
			<point x="7" y="809" type="curve"/>
			<point x="0" y="815" type="line"/>
			<point x="0" y="887" type="line"/>
			<point x="8" y="892" type="line"/>
			<point x="71" y="891"/>
			<point x="116" y="890"/>
			<point x="160" y="890" type="curve" smooth="yes"/>
			<point x="205" y="890"/>
			<point x="249" y="891"/>
			<point x="310" y="892" type="curve"/>
			<point x="320" y="887" type="line"/>
			<point x="320" y="814" type="line"/>
		</contour>
	</outline>
</glyph>
<glyph name="nine.tf" format="2">
	<advance width="600"/>
	<outline>
		<contour>
			<point x="320" y="77"/>
			<point x="526" y="191"/>
			<point x="526" y="424" type="curve" smooth="yes"/>
			<point x="526" y="607"/>
			<point x="443" y="710"/>
			<point x="306" y="710" type="curve" smooth="yes"/>
			<point x="161" y="710"/>
			<point x="80" y="604"/>
			<point x="80" y="475" type="curve" smooth="yes"/>
			<point x="80" y="317"/>
			<point x="166" y="246"/>
			<point x="282" y="246" type="curve"/>
			<point x="367" y="246"/>
			<point x="419" y="301"/>
			<point x="464" y="358" type="curve"/>
			<point x="438" y="394" type="line"/>
			<point x="405" y="359"/>
			<point x="358" y="326"/>
			<point x="299" y="326" type="curve"/>
			<point x="215" y="326"/>
			<point x="170" y="392"/>
			<point x="170" y="481" type="curve" smooth="yes"/>
			<point x="170" y="571"/>
			<point x="214" y="625"/>
			<point x="308" y="625" type="curve" smooth="yes"/>
			<point x="387" y="625"/>
			<point x="433" y="561"/>
			<point x="433" y="414" type="curve" smooth="yes"/>
			<point x="433" y="250"/>
			<point x="243" y="130"/>
			<point x="137" y="50" type="curve"/>
			<point x="135" y="45" type="line"/>
			<point x="170" y="-8" type="line"/>
			<point x="177" y="-11" type="line"/>
		</contour>
	</outline>
</glyph>
<glyph name="no" format="2">
	<advance width="769"/>
	<outline>
		<contour>
			<point x="384" y="-10" type="curve" smooth="yes"/>
			<point x="584" y="-10"/>
			<point x="709" y="129"/>
			<point x="709" y="350" type="curve" smooth="yes"/>
			<point x="709" y="571"/>
			<point x="584" y="710"/>
			<point x="384" y="710" type="curve" smooth="yes"/>
			<point x="184" y="710"/>
			<point x="59" y="571"/>
			<point x="59" y="350" type="curve" smooth="yes"/>
			<point x="59" y="129"/>
			<point x="184" y="-10"/>
		</contour>
		<contour>
			<point x="384" y="55" type="curve" smooth="yes"/>
			<point x="217" y="55"/>
			<point x="129" y="155"/>
			<point x="129" y="350" type="curve" smooth="yes"/>
			<point x="129" y="545"/>
			<point x="217" y="645"/>
			<point x="384" y="645" type="curve" smooth="yes"/>
			<point x="551" y="645"/>
			<point x="639" y="545"/>
			<point x="639" y="350" type="curve" smooth="yes"/>
			<point x="639" y="155"/>
			<point x="551" y="55"/>
		</contour>
		<contour>
			<point x="635" y="138" type="line"/>
			<point x="411" y="376" type="line"/>
			<point x="205" y="631" type="line"/>
			<point x="136" y="566" type="line"/>
			<point x="359" y="324" type="line"/>
			<point x="562" y="77" type="line"/>
		</contour>
	</outline>
</glyph>
<glyph name="northEastArrow.alt2" format="2">
	<advance width="750"/>
	<outline>
		<contour>
			<point x="375" y="-10" type="curve" smooth="yes"/>
			<point x="575" y="-10"/>
			<point x="700" y="129"/>
			<point x="700" y="350" type="curve" smooth="yes"/>
			<point x="700" y="571"/>
			<point x="575" y="710"/>
			<point x="375" y="710" type="curve" smooth="yes"/>
			<point x="175" y="710"/>
			<point x="50" y="571"/>
			<point x="50" y="350" type="curve" smooth="yes"/>
			<point x="50" y="129"/>
			<point x="175" y="-10"/>
		</contour>
		<contour>
			<point x="452" y="240" type="line"/>
			<point x="455" y="292"/>
			<point x="459" y="344"/>
			<point x="462" y="393" type="curve"/>
			<point x="403" y="332"/>
			<point x="293" y="217"/>
			<point x="253" y="175" type="curve"/>
			<point x="241" y="175" type="line"/>
			<point x="189" y="227" type="line"/>
			<point x="189" y="239" type="line"/>
			<point x="231" y="278"/>
			<point x="348" y="389"/>
			<point x="408" y="447" type="curve"/>
			<point x="358" y="444"/>
			<point x="306" y="441"/>
			<point x="254" y="437" type="curve"/>
			<point x="245" y="445" type="line"/>
			<point x="245" y="508" type="line"/>
			<point x="254" y="516" type="line"/>
			<point x="499" y="510" type="line"/>
			<point x="523" y="487" type="line"/>
			<point x="531" y="240" type="line"/>
			<point x="523" y="231" type="line"/>
			<point x="459" y="231" type="line"/>
		</contour>
	</outline>
</glyph>
<glyph name="one.osf" format="2">
	<advance width="477"/>
	<outline>
		<contour>
			<point x="223" y="60" type="line"/>
			<point x="228" y="112"/>
			<point x="230" y="194"/>
			<point x="230" y="277" type="curve" smooth="yes"/>
			<point x="230" y="467" type="line"/>
			<point x="255" y="444" type="line"/>
			<point x="211" y="424"/>
			<point x="131" y="385"/>
			<point x="76" y="358" type="curve"/>
			<point x="67" y="361" type="line"/>
			<point x="44" y="420" type="line"/>
			<point x="49" y="430" type="line"/>
			<point x="117" y="462"/>
			<point x="174" y="487"/>
			<point x="236" y="520" type="curve"/>
			<point x="323" y="510" type="line"/>
			<point x="328" y="500" type="line"/>
			<point x="324.67987" y="430.27728"/>
			<point x="323.00002" y="400.00131"/>
			<point x="321" y="293" type="curve" smooth="yes"/>
			<point x="319" y="193"/>
			<point x="323" y="108"/>
			<point x="327" y="56" type="curve"/>
			<point x="306" y="75" type="line"/>
			<point x="394.19178" y="75"/>
			<point x="417.51612" y="78.93279"/>
			<point x="454" y="84" type="curve"/>
			<point x="464" y="79" type="line"/>
			<point x="464" y="5" type="line"/>
			<point x="454" y="0" type="line"/>
			<point x="421.66407" y="5.05249"/>
			<point x="343.97727" y="8"/>
			<point x="266" y="8" type="curve" smooth="yes"/>
			<point x="188.17442" y="8"/>
			<point x="109.26218" y="5.32317"/>
			<point x="72" y="0" type="curve"/>
			<point x="62" y="5" type="line"/>
			<point x="62" y="79" type="line"/>
			<point x="72" y="84" type="line"/>
			<point x="110" y="79"/>
			<point x="175" y="77"/>
			<point x="246" y="76" type="curve"/>
		</contour>
	</outline>
</glyph>
<glyph name="one.tf" format="2">
	<advance width="600"/>
	<outline>
		<contour>
			<point x="264" y="43" type="curve"/>
			<point x="297" y="72" type="line"/>
			<point x="209" y="75"/>
			<point x="144" y="78"/>
			<point x="114" y="80" type="curve"/>
			<point x="104" y="75" type="line"/>
			<point x="104" y="1" type="line"/>
			<point x="114" y="-4" type="line"/>
			<point x="181" y="2"/>
			<point x="434" y="1"/>
			<point x="492" y="-4" type="curve"/>
			<point x="502" y="1" type="line"/>
			<point x="502" y="75" type="line"/>
			<point x="492" y="80" type="line"/>
			<point x="466" y="76"/>
			<point x="432" y="74"/>
			<point x="334" y="73" type="curve"/>
			<point x="365" y="43" type="line"/>
			<point x="360" y="169"/>
			<point x="358" y="287"/>
			<point x="358" y="394" type="curve" smooth="yes"/>
			<point x="358" y="551"/>
			<point x="366" y="635"/>
			<point x="368" y="690" type="curve"/>
			<point x="363" y="700" type="line"/>
			<point x="277" y="700" type="line"/>
			<point x="220" y="659"/>
			<point x="159" y="616"/>
			<point x="95" y="579" type="curve"/>
			<point x="90" y="569" type="line"/>
			<point x="120" y="513" type="line"/>
			<point x="129" y="510" type="line"/>
			<point x="160" y="533"/>
			<point x="234" y="580"/>
			<point x="296" y="615" type="curve"/>
			<point x="274" y="651" type="line"/>
			<point x="274" y="511" type="line" smooth="yes"/>
			<point x="274" y="301"/>
			<point x="270" y="169"/>
		</contour>
	</outline>
</glyph>
<glyph name="pentagono.001" format="2">
	<advance width="605"/>
	<outline>
		<contour>
			<point x="167" y="116" type="line"/>
			<point x="441" y="116" type="line"/>
			<point x="457" y="128" type="line"/>
			<point x="540" y="390" type="line"/>
			<point x="534" y="410" type="line"/>
			<point x="312" y="582" type="line"/>
			<point x="292" y="582" type="line"/>
			<point x="73" y="411" type="line"/>
			<point x="66" y="388" type="line"/>
			<point x="148" y="130" type="line"/>
		</contour>
	</outline>
</glyph>
<glyph name="pentagono" format="2">
	<advance width="605"/>
	<outline>
		<contour>
			<point x="167" y="116" type="line"/>
			<point x="441" y="116" type="line"/>
			<point x="457" y="128" type="line"/>
			<point x="540" y="390" type="line"/>
			<point x="534" y="410" type="line"/>
			<point x="312" y="582" type="line"/>
			<point x="292" y="582" type="line"/>
			<point x="73" y="411" type="line"/>
			<point x="66" y="388" type="line"/>
			<point x="148" y="130" type="line"/>
		</contour>
		<contour>
			<point x="138" y="365" type="line"/>
			<point x="145" y="388" type="line"/>
			<point x="293" y="506" type="line"/>
			<point x="313" y="506" type="line"/>
			<point x="461" y="388" type="line"/>
			<point x="468" y="365" type="line"/>
			<point x="412" y="186" type="line"/>
			<point x="399" y="176" type="line"/>
			<point x="209" y="176" type="line"/>
			<point x="193" y="188" type="line"/>
		</contour>
	</outline>
</glyph>
<glyph name="persona.apuntando" format="2">
	<advance width="595"/>
	<outline>
		<contour>
			<point x="275" y="477" type="curve" smooth="yes"/>
			<point x="355" y="477"/>
			<point x="389" y="519"/>
			<point x="389" y="594" type="curve" smooth="yes"/>
			<point x="389" y="668"/>
			<point x="345" y="710"/>
			<point x="275" y="710" type="curve" smooth="yes"/>
			<point x="196" y="710"/>
			<point x="162" y="668"/>
			<point x="162" y="594" type="curve" smooth="yes"/>
			<point x="162" y="519"/>
			<point x="196" y="477"/>
		</contour>
		<contour>
			<point x="275" y="530" type="curve" smooth="yes"/>
			<point x="230" y="530"/>
			<point x="221" y="549"/>
			<point x="221" y="594" type="curve" smooth="yes"/>
			<point x="221" y="638"/>
			<point x="230" y="657"/>
			<point x="275" y="657" type="curve" smooth="yes"/>
			<point x="321" y="657"/>
			<point x="330" y="638"/>
			<point x="330" y="594" type="curve" smooth="yes"/>
			<point x="330" y="549"/>
			<point x="321" y="530"/>
		</contour>
		<contour>
			<point x="510" y="433" type="line"/>
			<point x="520" y="338" type="line"/>
			<point x="556" y="386" type="line"/>
			<point x="361" y="316" type="line" smooth="yes"/>
			<point x="340" y="309"/>
			<point x="334.07524" y="296.99589"/>
			<point x="333" y="278" type="curve" smooth="yes"/>
			<point x="321" y="66" type="line" smooth="yes"/>
			<point x="321" y="60"/>
			<point x="317" y="56"/>
			<point x="311" y="56" type="curve" smooth="yes"/>
			<point x="237" y="56" type="line" smooth="yes"/>
			<point x="231" y="56"/>
			<point x="227" y="60"/>
			<point x="227" y="66" type="curve" smooth="yes"/>
			<point x="214" y="254" type="line"/>
			<point x="158" y="254" type="line"/>
			<point x="170" y="44" type="line" smooth="yes"/>
			<point x="172" y="16"/>
			<point x="185" y="0"/>
			<point x="211" y="0" type="curve" smooth="yes"/>
			<point x="333" y="0" type="line" smooth="yes"/>
			<point x="361" y="0"/>
			<point x="372" y="12"/>
			<point x="375" y="42" type="curve" smooth="yes"/>
			<point x="398" y="292" type="line"/>
			<point x="382" y="266" type="line"/>
			<point x="555" y="332" type="line" smooth="yes"/>
			<point x="566" y="336"/>
			<point x="569" y="344"/>
			<point x="568" y="355" type="curve" smooth="yes"/>
			<point x="560" y="434" type="line" smooth="yes"/>
			<point x="558" y="449"/>
			<point x="553" y="454"/>
			<point x="536" y="453" type="curve" smooth="yes"/>
			<point x="186" y="432" type="line" smooth="yes"/>
			<point x="101.93839" y="426.9563"/>
			<point x="65" y="380"/>
			<point x="67" y="329" type="curve" smooth="yes"/>
			<point x="74" y="184" type="line" smooth="yes"/>
			<point x="76" y="151"/>
			<point x="92" y="135"/>
			<point x="122" y="135" type="curve" smooth="yes"/>
			<point x="193" y="135" type="line"/>
			<point x="193" y="185" type="line"/>
			<point x="146" y="185" type="line" smooth="yes"/>
			<point x="132" y="185"/>
			<point x="128" y="194"/>
			<point x="127" y="207" type="curve" smooth="yes"/>
			<point x="121" y="314" type="line" smooth="yes"/>
			<point x="119" y="355"/>
			<point x="136.20834" y="376.31653"/>
			<point x="191" y="380" type="curve" smooth="yes"/>
			<point x="548" y="404" type="line"/>
		</contour>
	</outline>
</glyph>
<glyph name="pizarron" format="2">
	<advance width="780"/>
	<outline>
		<contour>
			<point x="635" y="213" type="curve"/>
			<point x="165" y="213" type="line"/>
			<point x="159" y="213"/>
			<point x="155" y="217"/>
			<point x="155" y="223" type="curve" smooth="yes"/>
			<point x="155" y="259" type="line" smooth="yes"/>
			<point x="155" y="265"/>
			<point x="159" y="269"/>
			<point x="165" y="269" type="curve"/>
			<point x="635" y="269" type="line"/>
			<point x="641" y="269"/>
			<point x="645" y="265"/>
			<point x="645" y="259" type="curve" smooth="yes"/>
			<point x="645" y="223" type="line" smooth="yes"/>
			<point x="645" y="217"/>
			<point x="641" y="213"/>
		</contour>
		<contour>
			<point x="220" y="635" type="curve"/>
			<point x="580" y="635" type="line"/>
			<point x="586" y="635"/>
			<point x="590" y="631"/>
			<point x="590" y="625" type="curve" smooth="yes"/>
			<point x="590" y="334" type="line"/>
			<point x="210" y="334" type="line"/>
			<point x="210" y="625" type="line" smooth="yes"/>
			<point x="210" y="631"/>
			<point x="214" y="635"/>
		</contour>
		<contour>
			<point x="110" y="148" type="curve"/>
			<point x="690" y="148" type="line"/>
			<point x="706" y="148"/>
			<point x="715" y="157"/>
			<point x="715" y="173" type="curve" smooth="yes"/>
			<point x="715" y="309" type="line" smooth="yes"/>
			<point x="715" y="325"/>
			<point x="706" y="334"/>
			<point x="690" y="334" type="curve" smooth="yes"/>
			<point x="626" y="334" type="line"/>
			<point x="660" y="294" type="line"/>
			<point x="660" y="675" type="line" smooth="yes"/>
			<point x="660" y="691"/>
			<point x="651" y="700"/>
			<point x="635" y="700" type="curve"/>
			<point x="165" y="700" type="line"/>
			<point x="149" y="700"/>
			<point x="140" y="691"/>
			<point x="140" y="675" type="curve" smooth="yes"/>
			<point x="140" y="294" type="line"/>
			<point x="174" y="334" type="line"/>
			<point x="110" y="334" type="line" smooth="yes"/>
			<point x="94" y="334"/>
			<point x="85" y="325"/>
			<point x="85" y="309" type="curve" smooth="yes"/>
			<point x="85" y="173" type="line" smooth="yes"/>
			<point x="85" y="157"/>
			<point x="94" y="148"/>
		</contour>
	</outline>
</glyph>
<glyph name="seven.alt" format="2">
	<advance width="461"/>
	<outline>
		<contour>
			<point x="407" y="611" type="curve"/>
			<point x="395" y="631" type="line"/>
			<point x="314" y="445"/>
			<point x="183" y="186"/>
			<point x="104" y="10" type="curve"/>
			<point x="109" y="0" type="line"/>
			<point x="206" y="0" type="line"/>
			<point x="214" y="10" type="line"/>
			<point x="253" y="135"/>
			<point x="385" y="449"/>
			<point x="460" y="625" type="curve"/>
			<point x="461" y="638" type="line"/>
			<point x="456" y="695" type="line"/>
			<point x="448" y="700" type="line"/>
			<point x="381" y="697"/>
			<point x="322" y="695"/>
			<point x="255" y="695" type="curve" smooth="yes"/>
			<point x="186" y="695"/>
			<point x="134" y="697"/>
			<point x="49" y="700" type="curve"/>
			<point x="44" y="694" type="line"/>
			<point x="40" y="612" type="line"/>
			<point x="49" y="605" type="line"/>
			<point x="169" y="611"/>
			<point x="278" y="611"/>
		</contour>
		<contour>
			<point x="76" y="345" type="line"/>
			<point x="140" y="348"/>
			<point x="215" y="348"/>
			<point x="295" y="348" type="curve" smooth="yes"/>
			<point x="365" y="348"/>
			<point x="403" y="345"/>
			<point x="433" y="345" type="curve"/>
			<point x="438" y="353" type="line"/>
			<point x="438" y="408" type="line"/>
			<point x="433" y="414" type="line"/>
			<point x="385" y="411"/>
			<point x="355" y="410"/>
			<point x="295" y="410" type="curve" smooth="yes"/>
			<point x="217" y="410"/>
			<point x="148" y="411"/>
			<point x="76" y="414" type="curve"/>
			<point x="70" y="406" type="line"/>
			<point x="70" y="353" type="line"/>
		</contour>
	</outline>
</glyph>
<glyph name="seven.osf" format="2">
	<advance width="471"/>
	<outline>
		<contour>
			<point x="397" y="421" type="curve"/>
			<point x="385" y="441" type="line"/>
			<point x="300.02125" y="244.73955"/>
			<point x="172.41757" y="-21.9989"/>
			<point x="94" y="-210" type="curve"/>
			<point x="99" y="-220" type="line"/>
			<point x="206" y="-220" type="line"/>
			<point x="214" y="-210" type="line"/>
			<point x="253.132" y="-72.53631"/>
			<point x="370.87929" y="250.38501"/>
			<point x="450" y="435" type="curve"/>
			<point x="451" y="448" type="line"/>
			<point x="446" y="505" type="line"/>
			<point x="438" y="510" type="line"/>
			<point x="367.53527" y="506.84486"/>
			<point x="305.4715" y="505"/>
			<point x="235" y="505" type="curve" smooth="yes"/>
			<point x="168" y="505"/>
			<point x="117" y="507"/>
			<point x="34" y="510" type="curve"/>
			<point x="29" y="504" type="line"/>
			<point x="20" y="422" type="line"/>
			<point x="29" y="415" type="line"/>
			<point x="152.34371" y="421.16719"/>
			<point x="264.39665" y="421"/>
		</contour>
	</outline>
</glyph>
<glyph name="six.osf" format="2">
	<advance width="526"/>
	<outline>
		<contour>
			<point x="211.0038" y="694.00011"/>
			<point x="40" y="527.06897"/>
			<point x="40" y="275" type="curve" smooth="yes"/>
			<point x="40" y="93"/>
			<point x="121" y="-10"/>
			<point x="265" y="-10" type="curve"/>
			<point x="404" y="-10"/>
			<point x="486" y="92"/>
			<point x="486" y="214" type="curve" smooth="yes"/>
			<point x="486" y="368.31111"/>
			<point x="402" y="438"/>
			<point x="284" y="438" type="curve"/>
			<point x="198" y="438"/>
			<point x="144.03758" y="384.0476"/>
			<point x="99" y="327" type="curve"/>
			<point x="123" y="288" type="line"/>
			<point x="158.76937" y="320.78859"/>
			<point x="212" y="358"/>
			<point x="281" y="358" type="curve"/>
			<point x="354" y="358"/>
			<point x="396" y="299.42754"/>
			<point x="396" y="221" type="curve" smooth="yes"/>
			<point x="396" y="130"/>
			<point x="351" y="75"/>
			<point x="272" y="75" type="curve"/>
			<point x="176" y="76"/>
			<point x="130" y="139"/>
			<point x="130" y="285" type="curve" smooth="yes"/>
			<point x="130" y="501.92371"/>
			<point x="288.13497" y="614.02503"/>
			<point x="439" y="642" type="curve"/>
			<point x="441" y="647" type="line"/>
			<point x="433" y="697" type="line"/>
			<point x="426" y="700" type="line"/>
		</contour>
	</outline>
</glyph>
<glyph name="six.tf" format="2">
	<advance width="600"/>
	<outline>
		<contour>
			<point x="258" y="708"/>
			<point x="80" y="533"/>
			<point x="80" y="275" type="curve" smooth="yes"/>
			<point x="80" y="93"/>
			<point x="161" y="-10"/>
			<point x="305" y="-10" type="curve"/>
			<point x="444" y="-10"/>
			<point x="526" y="97"/>
			<point x="526" y="224" type="curve" smooth="yes"/>
			<point x="526" y="379"/>
			<point x="442" y="449"/>
			<point x="324" y="449" type="curve"/>
			<point x="239" y="449"/>
			<point x="187" y="394"/>
			<point x="142" y="337" type="curve"/>
			<point x="166" y="298" type="line"/>
			<point x="202" y="331"/>
			<point x="253" y="369"/>
			<point x="321" y="369" type="curve"/>
			<point x="394" y="369"/>
			<point x="436" y="310"/>
			<point x="436" y="231" type="curve" smooth="yes"/>
			<point x="436" y="134"/>
			<point x="391" y="75"/>
			<point x="312" y="75" type="curve"/>
			<point x="218" y="76"/>
			<point x="173" y="139"/>
			<point x="173" y="285" type="curve" smooth="yes"/>
			<point x="173" y="508"/>
			<point x="329" y="624"/>
			<point x="479" y="652" type="curve"/>
			<point x="481" y="657" type="line"/>
			<point x="473" y="707" type="line"/>
			<point x="466" y="710" type="line"/>
		</contour>
	</outline>
</glyph>
<glyph name="two.tf" format="2">
	<advance width="600"/>
	<outline>
		<contour>
			<point x="112" y="0" type="line"/>
			<point x="492" y="0" type="line"/>
			<point x="502" y="5" type="line"/>
			<point x="516" y="94" type="line"/>
			<point x="509" y="100" type="line"/>
			<point x="155" y="87" type="line"/>
			<point x="163" y="59" type="line"/>
			<point x="237" y="121"/>
			<point x="490" y="325"/>
			<point x="490" y="548" type="curve" smooth="yes"/>
			<point x="490" y="647"/>
			<point x="416" y="711"/>
			<point x="304" y="711" type="curve" smooth="yes"/>
			<point x="220" y="711"/>
			<point x="163" y="679"/>
			<point x="100" y="648" type="curve"/>
			<point x="98" y="643" type="line"/>
			<point x="120" y="588" type="line"/>
			<point x="126" y="586" type="line"/>
			<point x="186" y="605"/>
			<point x="228" y="618"/>
			<point x="282" y="618" type="curve"/>
			<point x="337" y="618"/>
			<point x="390" y="590"/>
			<point x="390" y="518" type="curve" smooth="yes"/>
			<point x="390" y="360"/>
			<point x="159" y="143"/>
			<point x="98" y="83" type="curve"/>
			<point x="92" y="72" type="line"/>
			<point x="105" y="6" type="line"/>
		</contour>
	</outline>
</glyph>
<glyph name="y.alt" format="2">
	<advance width="522"/>
	<outline>
		<contour>
			<point x="386" y="114" type="line"/>
			<point x="386" y="-66"/>
			<point x="353" y="-133"/>
			<point x="254" y="-133" type="curve" smooth="yes"/>
			<point x="202" y="-133"/>
			<point x="155" y="-117"/>
			<point x="94" y="-89" type="curve"/>
			<point x="86" y="-89" type="line"/>
			<point x="54" y="-156" type="line"/>
			<point x="58" y="-163" type="line"/>
			<point x="122" y="-199"/>
			<point x="190" y="-220"/>
			<point x="253" y="-220" type="curve" smooth="yes"/>
			<point x="409.42857" y="-220"/>
			<point x="472" y="-108"/>
			<point x="472" y="127" type="curve" smooth="yes"/>
			<point x="472" y="235" type="line" smooth="yes"/>
			<point x="472" y="312"/>
			<point x="474" y="433"/>
			<point x="482" y="500" type="curve"/>
			<point x="477" y="510" type="line"/>
			<point x="382" y="510" type="line"/>
			<point x="377" y="500" type="line"/>
			<point x="384.37265" y="436.80585"/>
			<point x="387" y="321"/>
			<point x="387" y="245" type="curve"/>
			<point x="387" y="132"/>
			<point x="359" y="70"/>
			<point x="278" y="70" type="curve" smooth="yes"/>
			<point x="200" y="70"/>
			<point x="177" y="117"/>
			<point x="177" y="235" type="curve" smooth="yes"/>
			<point x="177" y="295"/>
			<point x="181" y="385"/>
			<point x="181" y="445" type="curve" smooth="yes"/>
			<point x="181" y="497"/>
			<point x="157" y="520"/>
			<point x="125" y="520" type="curve" smooth="yes"/>
			<point x="102" y="520"/>
			<point x="71" y="515"/>
			<point x="44" y="511" type="curve"/>
			<point x="40" y="446" type="line"/>
			<point x="134" y="427" type="line"/>
			<point x="92" y="478" type="line"/>
			<point x="92" y="145" type="line" smooth="yes"/>
			<point x="92" y="40"/>
			<point x="149" y="-10"/>
			<point x="242" y="-10" type="curve" smooth="yes"/>
			<point x="345" y="-10"/>
			<point x="382" y="53"/>
			<point x="400" y="130" type="curve"/>
			<point x="367" y="76" type="line"/>
			<point x="401" y="76" type="line"/>
		</contour>
	</outline>
</glyph>
<glyph name="zero.osf" format="2">
	<advance width="589"/>
	<outline>
		<contour>
			<point x="295" y="-10" type="curve" smooth="yes"/>
			<point x="439" y="-10"/>
			<point x="539" y="98"/>
			<point x="539" y="255" type="curve" smooth="yes"/>
			<point x="539" y="412"/>
			<point x="439" y="520"/>
			<point x="295" y="520" type="curve" smooth="yes"/>
			<point x="150" y="520"/>
			<point x="50" y="412"/>
			<point x="50" y="255" type="curve" smooth="yes"/>
			<point x="50" y="98"/>
			<point x="150" y="-10"/>
		</contour>
		<contour>
			<point x="295" y="80" type="curve" smooth="yes"/>
			<point x="202" y="80"/>
			<point x="145" y="147"/>
			<point x="145" y="255" type="curve" smooth="yes"/>
			<point x="145" y="363"/>
			<point x="202" y="430"/>
			<point x="295" y="430" type="curve" smooth="yes"/>
			<point x="387" y="430"/>
			<point x="444" y="363"/>
			<point x="444" y="255" type="curve" smooth="yes"/>
			<point x="444" y="147"/>
			<point x="387" y="80"/>
		</contour>
	</outline>
</glyph>
